<mxfile host="app.diagrams.net" modified="2023-12-03T22:10:26.928Z" agent="Mozilla/5.0 (Windows NT 10.0; Win64; x64) AppleWebKit/537.36 (KHTML, like Gecko) Chrome/119.0.0.0 Safari/537.36 Edg/119.0.0.0" etag="tfwQa5xRVPlZANUm4VcT" version="22.1.5" type="device" pages="2">
  <diagram name="Страница — 1" id="o3sYmgAIau1fM3dsohi6">
    <mxGraphModel dx="1624" dy="840" grid="1" gridSize="10" guides="1" tooltips="1" connect="1" arrows="1" fold="1" page="1" pageScale="1" pageWidth="3300" pageHeight="2339" math="0" shadow="0">
      <root>
        <mxCell id="0" />
        <mxCell id="1" parent="0" />
        <mxCell id="Sf9XIOIQq0EHz7IIRPpC-241" value="" style="shape=image;imageAspect=0;verticalLabelPosition=bottom;verticalAlign=top;image=data:image/png,iVBORw0KGgoAAAANSUhEUgAABC8AAAPBCAYAAADeWIBBAAAAAXNSR0IArs4c6QAACed0RVh0bXhmaWxlACUzQ214ZmlsZSUyMGhvc3QlM0QlMjJhcHAuZGlhZ3JhbXMubmV0JTIyJTIwbW9kaWZpZWQlM0QlMjIyMDIzLTEyLTAxVDAxJTNBMDklM0EzMy44NzFaJTIyJTIwYWdlbnQlM0QlMjJNb3ppbGxhJTJGNS4wJTIwKFdpbmRvd3MlMjBOVCUyMDEwLjAlM0IlMjBXaW42NCUzQiUyMHg2NCklMjBBcHBsZVdlYktpdCUyRjUzNy4zNiUyMChLSFRNTCUyQyUyMGxpa2UlMjBHZWNrbyklMjBDaHJvbWUlMkYxMTkuMC4wLjAlMjBTYWZhcmklMkY1MzcuMzYlMjBFZGclMkYxMTkuMC4wLjAlMjIlMjBldGFnJTNEJTIyNkxReHV6OHNoOE41VGxVUkxmOHglMjIlMjB2ZXJzaW9uJTNEJTIyMjIuMS41JTIyJTIwdHlwZSUzRCUyMmRldmljZSUyMiUyMHBhZ2VzJTNEJTIyMiUyMiUzRSUzQ2RpYWdyYW0lMjBpZCUzRCUyMlkweTNjS3YtNEEyYUlNSElhMGtpJTIyJTIwbmFtZSUzRCUyMlBhZ2UtMSUyMiUzRTdadmRscG93RUlDZmhzdnRJUVJRTHhGeGQ5dXFQUzdiOXBaS1ZqbEZZakZXdDAlMkZmRUFpaW9TMXRFNmh1dmVCbkNCQyUyQm1TUXp5YWhCZDMyNFRZUE5hb0pERkd1R0hoNDBPTklNd3pCN0p0MWxrdWRjQWdhbW5rdVdhUlFXc3FQZ0lmcUdDaUV2dG90Q3REMHBTRENPU2JRNUZTNXdrcUFGT1pFRmFZcjNwOFdlY0h6NjFrMndSSUxnWVJIRW92UkRGSkpWTHUxYiUyQmxGJTJCaDZMbGlyOFo2TVdWZGNBTEY0THRLZ2p4dmlLQ25nYmRGR09TSDYwUExvb3plcHhMZnQlMkY0QjFmTGlxVW9JVTF1TVBJYnZnYnhydmkyb2w3a21YOXNpbmRKaUxMeXVnYUglMkIxVkUwTU1tV0dSWDkxUyUyRlZMWWk2NWllQVhvb3ZyJTJCbzBsZVVFblNvaUlyNjNDSzhSaVI5cGtXS3F6Y1dwMVdZeHcyMEM4SCUyQkNCdm92VUs0cXBBZThKSkJvZUZsJTJCZmdqQkhwUWNLaG5BcSUyQkxTV2w4ZjhQRXZBQW01WGs3U1BxV1pDWmJrdUxQeU1VeFRxa2tSRSUyRkJMcVlWSGo3aGhCUjlJREJhdFNlZ2pKMHRzSHQ4OE9oT2Qzd05PZ0pIJTJCbG5rWjdBU25LQ01WQlRIWjZJZ2pwWUpQVjFRV0lqS2h4bWtpSGJsVG5GaEhZVmg5cHBhN1p6cXJ6TkYyRFY2Z0RMVTBMdGdFNGFEQnVTZ3JzeUUlMkJ3STc1OUclMkZtODJaJTJGZW9heGVXdzdURGY5alJLcUYlMkJWQUxiMW1OeGcyeDZUOU5uV0tZN3pSdzN5QjFJa05nUDZLYVZIUzhKUTJsOTJtYnN3dk1PRU9WcDNlTHVKQ0RWOGt1R2FCQWwxUjlZWjZMS2tndllWb3lmeTc3V3VSallDJTJCalUyWXNvd2tZRmdJaVBIOTNJRE1jQXJBRjdSUFh3eDJqQ2FEVHBBalRhNEtWUzA4VzQlMkJlJTJCMjUlMkZySEZIcHVaJTJGcjlkJTJGVmE3QWpXYXJITzlaQXhiQXlCb2N1NjlaMXEwZzNWR0lQbTAzYkJQMWM5Rmh2bSUyRjJVRmdOZlAxcERRNzJTRm1VeCUyQmpxaWN0Y3dTeW55U2tUWVlWd3hLQmN0bGZBWlVkbjdicHRBbmdvR2lLeXNESkRtSTdCVmZUNFNvRGQ4bVI3am00TW01dkE1d1k1bDRPT050cTBNZnBOZVNraEZjRE1UVDlNSnUlMkZ1WiUyRmV0a1B3YkVqdkZLZ1VVeFREMWRIY0dmdlhRN051SkZGR1U0enM1cDQ3bTB5ODZjZ2JYUSUyRlR1a0ZHRmRPeTI2Z0dhSSUyRkR0JTJGZXU0OSUyRlBwbGNEdFhZQVVnZFZqSlV1bFNRd20zamQ2a2gyRmNpMFFiTE56aFBvWFVVd2JaQnN0OHZzS3FScGdXVEwlMkZhUVk0OHc5WiUyQlROQlo1WHV4YlZxSCUyQnRXNHFTb3dBeFZtS1Q1UzhHZjJudjNlQVhQVnElMkIxclRkQk1tSkR2aDBkd2JoWnNzbzVDc2FtNE5XWFpEaVMxU096aDlGcTVFJTJGamE5ZFhVZ3dETTBtc1Z2ZE5JS1VZTGljbksxb3g1MU5mZSUyQmpvdFh5ZjNJaXU1RVNlblVEaEJRVjFEalNiTVhJVkc3RkJoQ25zOGZzSnlsRU1YazglMkI1Tk1tbkl4UUlGMWQlMkJCWnEyWUtvZDRwVXRFeG5NNUczbVhrMXBpU3pMcEpncGlxMUJvQVJJZHklMkJqZ1pYb1JES1VrQlRkcUFQVkRGdjR1NWQxTnRwMktlTFdaWWZSRm9YVEtMbkFGUW5KSDM3JTJGMjNMNnhQTWF4ZkQ1WHElMkJoUnhFdiUyQjNuWFRqQjA0NlMzd3hXUm9hWktsbkk1NkdSaVUyVDB5angyT3RtaHpEZkNDSFo3TGx0NVg1YkhwRlBtUVNWek9xeVc4V1Q0MHJpNDE1Z2h3dERDcjE4TGdrZjNpZUdsZjVoa2JoeGZXYUpiRE9lZ1lvbWlXc3k4ZjVneFFQZW5yOGd3SzdWdm1mQiUyRlMlMkJBdyUzRCUzRCUzQyUyRmRpYWdyYW0lM0UlM0NkaWFncmFtJTIwaWQlM0QlMjJzdG1kaEhnbGVfc0w0SGFqSkJqSCUyMiUyMG5hbWUlM0QlMjIlRDAlQTElRDElODIlRDElODAlRDAlQjAlRDAlQkQlRDAlQjglRDElODYlRDAlQjAlMjAlRTIlODAlOTQlMjAyJTIyJTNFblpLeERvSXdFSWFmcG52dEVhS3JGWFZ4WW5CdWFJVW1oU09sQnZUcEJRdGl3MEEwYWRMayUyQjclMkZjWFM4bHdNdnVaRVZkWEZBcVF4aVZIWUVEWVd3VHM2aSUyRkJ2THdaQnRSRDNLcjVTak5JTlZQTmNKSnUydXBta0IwaU1icE9vUVpWcFhLWE1DRXRkaUcyZzFOMkxVV3VWcUFOQk5tU2E5YXVzSlRBRXJuNEt4MFhveXQlMkIyam5rMUpNOXFnMmhaRFlmaUZJQ0lzSmcwNFEySk9CaFFlNFJYU3IyaVNYSFZkbTJQNjBXTiUyRjMlMkJIJTJCQnolMkJPdHF0eHZOWUgzMXNyNGJ5ZjRPWkM4QUElM0QlM0QlM0MlMkZkaWFncmFtJTNFJTNDJTJGbXhmaWxlJTNFIq/yFAAAIABJREFUeF7s3VusdVV5P+DpTXtRAsQbMWBN0LTGtHggJpUQm5Rg4x1qsfQgQWrAUjBtqIag2AieYkvaIEWkFS1iQ0pV0t40Ui+aKE1q2mppiTWB1ChBE0MjSi96wz/vqmP/xze/uQ7v2nu/ex2edcPH3mPNMeYz1px7zd8cc4znDcPw3OBFgAABAgQIECBAgAABAgQIENhQgedFePHcc/KLDe2fuc163vOeFx23bc3WXgIE9lAgzlcVL+fECmV17IqA7xG70pP2o0rAMVMlrR4C0wJxDAovtvTT4QS6pR2n2QT2UEB4sYedbpc3XsD3iI3vIg3cMAHHzIZ1iObsnYDwYou73Al0iztP0wnsmYDwYs863O5uhYDvEVvRTRq5QQKOmQ3qDE3ZSwHhxRZ3uxPoFneephPYMwHhxZ51uN3dCgHfI7aimzRygwQcMxvUGZqylwLCiy3udifQLe48TSewZwLCiz3rcLu7FQK+R2xFN2nkBgmMj5nPf/7zw5vf/OaDFn70ox8d3vWud53S4kVlvv3tb8/ef+GFFw4f//jHD973h3/4h8MTTzwxfOQjHxmuuuqq4aGHHjpN4bLLLhs++MEPzn7/1a9+9ZTfv+QlLxk+85nPDE899dTw7ne/e/bv1772tbMy//iP/zi89a1vHaKtDz/88HD33Xeftu3XvOY1w+c+97nhRS960QbpawqBYRBebPGnwJeOLe48TSewZwLCiz3rcLu7FQK+R2xFN2nkBgn0x0yEEn0w8IMf/GAWJFx00UUHAUaEEA8++OBBENDKnHPOObOwooUXTz/99CkBQwsv+kAjQod3vvOdwx133HEQRLT333TTTcOb3vSmSanY1iOPPDJ8+tOfnv1+3Mb42Srb2aBu0JQ9FhBebHHn+9KxxZ2n6QT2TEB4sWcdbne3QsD3iK3oJo3cIIF2zEwFFdHMCBje9773Dffee++s1VdfffVw6623HoQNLShoPz/vvPNmZSLM+NGPfjQLGM4666zhKMOLvq1Rfwsyop72GocX8f9Tbd+grtCUPRUQXmxxx0996fjt3/7t4bvf/e7ByW9RmpodkjZOdadOrKsMjRsPbYthb+1kvag7Yt/GQ9uqh7W1PwD98L2pIYKb/LEa3yno27rK8MdN3jdt21yByvAizhXnn3/+wZ2vNkT22muvPeVn/R2s8bE9Pre0bTz++OOnIL/jHe84GOob9carv1MWP4thuTFk97777jto11Sb4r3jtu/COWdzP5VaNvU9ol3ELPpbPe94GB8347vMTXzq/W2YexvaPvU3P97f/uZO/X68DT282QLxPTJGLvSved8Jx99vx99X+m3E4w5xrh5vO8r05+x1dNoxMzUKYry9aGOc+8ffcfsw4YorrpiFBPGoSfztiMc5YgTFUYYX0a52zMW/+0dI5oUX69h4D4EKAeFFhfIx1TH+0hEnpvijHq84YbcvAPOGgh32xDh+/6pD4/oQZF5yPUU2dWEwtQ/HxD3b7O///u/Pnk1stsdZ13FsO7yvv/762aYvuOCCU57LXGX443G0yTb3Q6AyvBifF+Kz/eEPf3h42cteNtx5552zu1r9l8pnnnlmdlxffvnlB8fE+HhYZbju+Bw1/rLdBxPti+Tzn//8U54r7stMPQttaO9+HC9Ve7kovFj0t3qVC7fYh3acxb9jqHt7fn7q/eNjbupvfu8y7zvB1F3lKk/15AT6xxnaKICpm3Dzvt+22io/C3140UZYzJsXYl54Ee1u5/oWXsTojJifIua4iPDlgQcemM15sepjI8tuDLbv21H31A1Df1tyn12lT05gMryY90dpfEdonJj2d6Cn0tTYzZZ4ZtLWxjOV4M9L5qvvyJ9EF46/dIRpe/UnvIrwYt7wsv7nMTQuLhAWjeDoh9uN/xhM/XHq/zB86UtfOmXSpDj5R3rd3+Fpn79Wzyte8Yrh9ttvH8Z3a/rPZ/tdtP+Tn/zk8L3vfe9gBEj/mR/fIY3649VP5BT/H5/NSy+9dDj77LMPLpTasXXNNdfMwoXrrrtuFpD0x2K896677ppdfMW+xh+4+AMUF2VT5acClthebCOS/djHGNYYzqsMfzRp00kc5btTZ2V4MT6PxPEVYV2cL9rw3Xa+jLtd80LQ/uer/F3sz1HzvpS3ESGtjWecccZsuHD7gtr/nZ3aRnwiqkPb3fkU2pOxwKrhxfhzt2p4EZ/n+HsXo4/Go6HGz+63C7r4bxwP64QXi75D6P3NE5g6x019Z533/fakw4upz3CvnA0v4ntb+xsQ28mEF4vmvGjH7xe/+MVZ817/+tefNqmo8GLzjg8tmhZYO7wY32VvH/p252rel67WjFXT1qmTQPysT/Dj//fxoOu/dLQ76nERGxfZ7YQaF5wV4cWqQ+PG4cVhR160LzdXXnnlKZMYtc9XfE7CIi7WL7nkkoNgID4z8bP4UhVfkvrPYwsG2izLfR3xnjb0fOza3y2IbfSTOI19+gun9oUtvtiNw4t+yHkLLz70oQ8NN9988yywePnLX35K2NGXnwov+nrbl8oW8Cz7I+wkSuAwApXhRX8+7I+ReGwjjvk4F8SEZe280P49nuwsjtt2F+w73/nO0onS2rkijuV+grb+C/Y4vLjtttuGW2655SBU6YPMqUnVDtMH3ktg3fBi/Ld6lfAi/ka2vytx/LTwPe6wz3t//7cyLsZakDHVc5V3231yjkdg3rVCH+Iu+n57kuHFvO+v/ec+2rfqnBctWG/HRowUjHB71ZEXi8KL8Y2wqe97+3gddTyfals9boG1w4tlfzTuueeeyQlhFoUXyw6ceQn+VHixDxPN9OFFu6PehkT3F6ZHFV6Mh6SFexvJsGq6HOHFeDurPn84Ncpm3rORU+1pf2jiguWFL3zhKRciiz4v7S5nBCTjIYLtd20pq/as4viP2jrhRQwf/MIXvjA7ZCKoaOFFJOYxLDb+oPV/1Mflx+FFXzZ+F22Ku2GxHXerjvtUa/uV4UUfCF588cWnjFiKz3yEf+3L25lnnnkQZIzDi/64iIuvOL7Hc170o6/6c9TU6L/xYyPtfBLDg9tQ9/gC2oLMcajSb3/VuYJ88ggsEsjMedH/rV5lDpj+b8z478+q4cV4nqt+lOTUd4J9GHW7S5/oVcKLRd9vl4UXU3NetFG56zqustpIP5pulUeqxwFHG/07/n68yuOL4/0a31yO36864mVdI+8jcJwCa4cXbaKceV+g1hl50X/hHK+RvCjBnwovjhNtU7bdn0CnHsNpJ72jCi8WPe6RCS/adla5c9NbrzKEtP+i03822+d1/NhIe2yiDy/iTu14Te14X4QX/Z2jaFv7chYXQ+NRJf2Fythn/P/jx0biIikmVGr/beFF/P/P//zPHzyv2L4QTpUfhxdTXzbbF72pu8qb8jnXjt0QqA4v2rEZIy0icIi/Kf1jU3F8Rdgbr3kjL8bhRX+3qh+V0R6piuP4n//5n2fPK8cIqfHkyfPCiz5AacPrYxTWvJEXi863u/FpsRdVAqs8NjL1t3qVv99T4UIL++a9v//umBl5kRnFWWWrnuUCU9cK475c9P12WXhxHPOfjI+Z8cShUzfkFk2GPnXzbNFEt/OWSp26wRh/59ojzP08F1Pbt9rI8s+rEpshsHZ4Ec0fP+PfXyzOm/OiJZ6rpK090aIEf9/Di6lwYupivI0KWHSyz6S6/XPX6855MU6kFx0Wi8KL8YXEvC/37eIh7sb2fwD6/f7yl798yqihtp/93dp2sbLuyIsW1PVhS3ypa4+NxN2lmFsjRnS0OTDiPW2+iv7CK34/VX4cXkz5LRui3oeG5rzYjJP2traiOryIz24ECLH03Bvf+MbZ/DfxNysuiGL+i/h5C8nXnfOif1QshsL3x9jUxdS88CKOrXYOO/fcc4eLLrpo1rZ5fyeFF9t6FGxeu1cJL6LV47/Vy8KLeYFHG200LzDvj6FVblhE29qw+hbQx9/S8SiqzZPXova5GgcM/XfauMEyvjE09X1z2WjwfknQw8pbXviwgt5P4HAChwovxlX3J491Rl4sSs4XJfj7Hl5M3QEcW46/ZM/7I79ueDH15Wac7E6FLJm7JauGF+0uZrTpgx/84PCe97znYI6UPrzo56/oP6/9I09tFYILL7zwYAKx9sz6+A9ob7xszoupY6cfKv7oo4/ORl70z+u38CLuFkcb49Xuzk6V78OLRaNv2heHcZvnJf+HO+Uc3bvbPo3vNkwNCR3vyzh47VsVIWx8buKu93jbqyzDtyjUbfWs+ljbvHLLHvMZ3+XpTXq3PnAej8zpH4fof7fusOzq8KKNSoqQop8jKVYMevbZZ2cjqcYrMh31aiPj8+yi8KIPNJt966t2/un/1kXIscoS00d3xNnSLgqsGl5k57xYNix9/Ohm2FptZBc/YYv3adn8d+M5yGJr84LhPsiaF4wchbDw4igUbYPA+gKT4cWiIUxxR2g8qWCrvr8bdJRzXixL8BdNSrk+zea/s51A513Uj++UjAOgqYu8w4QX7ctHv7pGfwE07wK6/8IS25i39NSi8KK/YIwLzBtvvHH2RSgeC4nnydtzj+1i7bHHHpvVE5MhPfTQQ7MVQNoEnf3FXfz8bW972xAzNMeFQrz6R0qWrTbS7v4su1M6bwRE/5xwH15EqBLPSMZ+xWiMdqd2/Fxxf2y2iQf7ERTji6tVhj9uypEx9XmaF8o1/2j7eLLfzGd+lX3vJ0Wd+pLV2v30009PrrXeBxxxLI3LtX0cL7HZv6+fsLcPN1uw1z4v7ZjqR/iMV7kZTwq7LJieZ1QdXsz78joV9vZfiON8EK9xSLNomHubnDNGekx9gY7jNM4v/YoLUwHU1LPJsb3xubs/76zymVSGwKLj8rnnnjvl16v+rZ6aAyb+/sZIiP7vUr/xFvLHo5Dx734OmXE4PHXTKrbVhuVPfSeYdwz5BGymwNQo7T5Uz3y/nXfuHe/5YecLEl5s5mdJq/ZHYDK8mLrjOk7Ex19gx+9Z9gV3WdraD/FaluDHBeK8P7a73JVOoOv37rI71+tv2TurBFYZTdKvGz+1XF+0dZ3wYtWRE+ML6AjN4gt/C9fa7OJjsxZQjMu183Afzi17nGc8BLefGGzZhXwLOfr2rXvsnER4UfVZVA+BbRXwPWJbe067T0rAMXNS8uol8H8Ck+FF/GI89HlquPQ4Me0nqZk350VLPGNkxngW4Kk0dNmjJG1CtDa8v00Gmbm42NYPgxPo+j237gXY+jV651ELzAsvxn3bz9sxXq5v3fAisy/z7g5OLZ823u66j42Mw4Y2EiN+3o9smjeaYFEYvCyYnmcjvMh8apQlUCPge0SNs1p2R8Axszt9aU+2U2BueLGdu7NfrXYC3a/+trenCqwaXiyb7HfRyIvxnBfZ4abzRjasGq4eNryYWrK3f3xoXnixaDh2mKyz1JzwwhFMYPMEfI/YvD7Ros0WcMxsdv9o3e4LCC+2uI+dQLe48zT90AKLnsvuL9CXTfa7zmMjqzR+/Khd/56K8GLq8b/xqJSpfR9P7jve13Uf0RNerPKpUYZArYDvEbXeatt+AcfM9vehPdhuAeHFFvefE+gWd56mH1pglTkvYo6J8Zroq1zAr3uB3nZq2RLAxx1ezJu0blzv1GSe55xzzsHSg1OdlFkhqH+/8OLQH3kbIHDkAr5HHDmpDe64gGNmxzvY7m28gPBi47tofgOdQLe48zT90AKrrDayymS/Rz3yYt6jIv0OH2d4sShcmFpCOdoVqwPMm9V93NZ5j5os61DhxTIhvydQL+B7RL25GrdbwDGz3f2n9dsvILzY4j5sJ9C2NGObVDWW9IyJS9tFSdvFVSepjO098cQTC+++xjbb8p7vete7TlGcd8G4ygSF63RH3455beq32y7gYtWHWGu+TWAYkznOW6Z1ql1tO48++uhpS162CWv3ZUnD/gI3rGKZvPgM/u7v/u4wb0WNdfp6HADEUqLjeSnafAyrTvY7NTqjXy533M7YfiyjOe/zPPWYyniujKnwYuqzu+qcF2P/qSUMm0u/b61dbcLjsWX7/LbVT9qyhua8OOyn1/sJbIaAC7HN6Aet2B4Bx8z29JWW7qaA8GKL+3UqvHj44Yfn3kXd1fCi78JseBHL7GbDnVa+XRz/8Ic/HH75l395aCFO/Pz6668fvvGNbwxvectbDn6+xR+1pU2fF168973vHe64445h2XKeSytQYOsFjLzY+i60Azso4EJsBzvVLh2rgGPmWHltnMBSAeHFUqLNLdBOoDFMPV4xiuBrX/vabETE1BDwqWf92x3auJMcd1PjzmvczY5XW/q2v+vaysXF6GFGXoyX4u3v5PZ3rvs2xKiIV7ziFcPtt98+9Ev3tnZEm9vyu3HH+Jprrhmuuuqq4aGHHprtT7vLHP+On/cjLz7wgQ8MN9xww2z/Yx9/9md/drjgggsOgoc2uqUfZdL2IdoUd6TvvPPO4ayzzhrCK0YexKttY3wnf7xfZ5xxxkE7e4t+yeF+n8d3z3/0ox8djHCY11/xOfnMZz4zRF3333//bD9jdESYRfv7USJRtn0Oxm4xJ8Ldd9998BmJyTGbc7Txj/7oj2afw9/7vd8b/viP/3j233Dx2m+BqvBiv5XtPQECBAgct8Bzzz133FXYPgECcwSEF1v80ViU/i4LL2K34+L08ssvn12g9ysM3HPPPQePjYznFejLxYXv+eeff9rIglUeG+m386UvfWl2AR0X1k899dTsv/HoS7xiBMN11103+3eEDZdeeulsZElfR9+O8SMk8b4o3+/HJZdcclp4ce+99w79YyMRYky147Wvfe3BJ6aFF69//euHuNhvj0e0oCMevQmfFqJcdNFFM6t+zoC2X9dee+1p/RAu41Uz2v70/Rv1feITn5i197zzzpv1a5jEqJKxc/wuwpFm8OSTTx6EVq2ucGiTXL785S+fWUVg0UKKaEP0T99vUe9xPRa0xYeopncCFXerKurQqQR2ScAxs0u9aV8qBBwzFcrqIDBfQHixxZ+OZeFFuzve72IbOTGe36G/oP7yl798EF6MJx/sR2986EMfmhtetBEQfd1t5EC7II4wIi6w+7kJ+nk7+rv140kC+8cU7rvvvoN2zBsN0s9zsUp4Ee1uF/BhFSMp2siKtk/9NuNxnRZUtMClb1fvMH7Eol8No42OiHBgPFqhzUVy8803nxIU9NuL8KcPPPr+ikBmHIa08Kkv98ADDwyPPPLILKCINrQ2xeMf0dYWwvT1Ci+2+ERS1PSKL3wVdRRxqYZAiYBjpoRZJTsk4JjZoc60K1spILzYym77v0YvCy+iTIw6aK9FF7L9heg4vGiPD7TttIBh3sX5spEX49EBsd0+dOgflegnDOwn01wlvBhPMhj19KMOlk3YGW2KkR5tksLxxKR9eBHbjgDjyiuvPJj0sw93+scwomwzjH/3+9WHF/G7/rGX+P943CTq6AOPcXgxr7/6US0RSvTm4/BiHD5F6BVhxnve857ZCJgInYQXW3zyOIGmV3zhq6jjBOhUSeDYBBwzx0Zrwzsq4JjZ0Y61W1sjILzYmq46vaGHCS8yIy/a4xPjkQDrznmxaOTF1JwSLWToL9j7kRhTIy/Gj2pkR17EnB4RJHzhC1+YwcejK/0jI/GzfptxcR/ti1Di2WefPZg0NUY2XHHFFac8yjEeeTEvvIjHd/oREKuOvJjXX+NRHYvCi6nVZvr9FV5s8YnjhJpe8YWvoo4T4lMtgWMRcMwcC6uN7rCAY2aHO9eubYWA8GIrumm6kYcJL2KL68x5ERfQDz744GwEw6LHRvqL7qhrvOTjvDkv+lEfbdWOfs6LNjfEsjkvxuFFG/mQGXnR5sk499xzDx6h6HtiKhCJyUHbhJstHBiHF/0cFbG9VcKLtpTlhRdeeNpqMovmvOj7q5/HY9HIi37OiwhsWl+1x0aMvNjik8YJNr3iC19FHSdIqGoCRy7gmDlyUhvccQHHzI53sN3beAHhxcZ30fwGHia8iJEFi1aliGBjarWRqVU+xo9TLHtsJC6I5602Mv75+LGRtirHvFVP2iMn8b5oa79ySkj2E2iOHxtpgU78NwKIRSuqRJnxSIQ+KBi/t38U5g/+4A+Gr3/966esdhIThrbRHm3kRAss2goob3vb24YvfvGLsyCl/92NN944216bMLTv176/Vh150drR7Jr1mWeeeTDR6XjkRRtN8+ijj84mDh2PUtniw0zTj0ig4gtfRR1HxGEzBDZCwDGzEd2gEVsk4JjZos7S1J0UEF5scbfu0wl0vMxrRbeNR4tU1LlOHeNJVdfZhvcQOG6BivNVRR3H7WT7BCoFHDOV2uraBQHHzC70on3YZgHhxRb33j6dQKvDizZ6oT2mskkfk/HolH50xSa1U1sI9AIV56tWR3vkK0Yt9a/2SFf8bGpC3/h5G3HWvy8Cwraccz+qKB6pGq/qFMdjTJQcKxTFY2Tj12WXXTb5GJpPC4GTEKg4Lk9iv9RJ4LgEHDPHJWu7BFYTEF6s5rSRpZxAN7JbNIoAgQmBivPVOLy46aabZivj9GFFPFIWPxsvvxxlWujRv6/NvRO/v+CCC4b+MbkIL+LVr+o03vWpenxACGyKQMVxuSn7qh0EjkLAMXMUirZBYH0B4cX6dif+TifQE+8CDSBAYEWBivPVovAimtnPx/PYY4+dsuRw243xKkoRPsQoipgjJ97f5qeJ8sKLFTtfsY0VqDguN3bnNYzAGgKOmTXQvIXAEQoIL44Qs3pTTqDV4uojQGBdgYrz1bLwon/8bLyqTuzX1MiLCCziFSMuIqy49NJLD0ZzCC/W/TR436YIVByXm7Kv2kHgKAQcM0ehaBsE1hcQXqxvd+LvdAI98S7QAAIEVhSoOF9lw4sYTfH444+fsgdthaP4Yb9cc8x1EXNfPPzwwwePiUzNedHPqxHb8NjIih8QxU5EoOK4PJEdUymBYxJwzBwTrM0SWFFAeLEi1CYWcwLdxF7RJgIEpgQqzlfLwot+ZZ7xyIupVXumJvUcL9Mc+2rOC5/5bRWoOC631Ua7CZzU3zLyBAjMFxBebPGnw5eOLe48TSewZwIV56tl4cWyOS9iJMV3v/vdg9VAph4L6efE8NjInn2Id3B3K47LHWSzS3ss4JjZ48636xshILzYiG5YrxFOoOu5eRcBAvUCFeerReFFG0Wx6mojMcLizW9+89CvPBJqfQASv4uXkRf1nyc1Ho1AxXF5NC21FQKbIeCY2Yx+0Ir9FRBebHHfO4FucedpOoE9E6g4X43Di69+9aunKPfzUcybiyLCiQcffHB4+9vfPvz5n//5EO950YtedLCdPgSJ+S+EF3v2Qd6x3a04LneMzO7suYBjZs8/AHb/xAWEFyfeBes3wAl0fTvvJECgVqDifFVRR62a2ggcr4Bj5nh9bX33BBwzu9en9mi7BIQX29Vfp7TWCXSLO0/TCeyZQMX5qqKOPes2u7vjAo6ZHe9gu3fkAo6ZIyc90g0+99xzs6XNb7/99uF1r3vd8Jd/+ZfDueeeO7eOZ599dvbo5yc/+cnhG9/4xmyk5WWXXTa8+93vHs4777wjbZuNHY2A8OJoHE9kK06gJ8KuUgIE1hCoOF9V1LHGrnsLgY0VcMxsbNdo2IYKOGY2tGN+3Kxvfetbw1ve8pbh6aefnk3AHcHEb/7mb042OpZDf8c73jE88MADw0UXXTS86lWvGr75zW/Oljh/5StfOXzqU58aXvrSl272Du9h64QXW9zpTqBb3HmaTmDPBCrOVxV17Fm32d0dF3DM7HgH270jF3DMHDnpkW7w/vvvH2IlsBtuuGH4whe+MPzCL/zC8IlPfGL4iZ/4idPq+Yu/+Ivh+uuvH66++uohJvP+yZ/8ySFGbsSojfe///3DddddN3zkIx8Zos+9NkdAeLE5fZFuiRNomswbCBA4IYGK81VFHSfEp1oCxyLgmDkWVhvdYQHHzOZ2bjwCEkHEf/zHfwx/9md/NvzJn/zJ8G//9m/DZz/72eHVr371KQ1vZad+H6M23vrWtw7f//73h7/6q78aXvziF2/uTu9hy4QXW9zpTqBb3HmaTmDPBCrOVxV17Fm32d0dF3DM7HgH270jF3DMHDnpkW3wX/7lX4bf+I3fGC644ILh3nvvHT7zmc/MRmHceuutwy233HJKPf/5n/85XHHFFcNP//RPDzEC4+yzzz7l9zFvxqc//enhvvvuG97whjccWRtt6PACwovDG57YFpxAT4xexQQIJAUqzlcVdSR3W3ECGy3gmNno7tG4DRRwzGxgp/y4Sbfddtvwvve9bzbPRcxlEfNX/Pqv//rwUz/1U6dN3NmWPb/00ktn5cevWDY9Ju2MYOPKK6/c3J3ew5YJL7a4051At7jzNJ3AnglUnK8q6tizbrO7Oy7gmNnxDrZ7Ry7gmDly0iPZYEzO+Wu/9mvDD3/4w1lQ8TM/8zPD//7v/w6/8zu/M5uQczxx59/8zd/MRmnEZJ5T4UU8LvKrv/qrs7kwYhSG1+YICC82py/SLXECTZN5AwECJyRgwqsTglctAQIECBypQEzq6LVZAn/7t387m+8iljn90z/904MJOtvPf+mXfmn2KEmMwojX5z//+eHNb37zbITGVHjRfi+82Kx+jtYILzavT1ZukfBiZSoFCRA4YYGK81VFHSfMqHoCRyrgmDlSThvbAwHHzOZ1cj/CIuapiFCivZ588snZoyP/9V//NZu/4hd/8RdnvzLyYvP6cdUWCS9WldrAck6gG9gpmkSAwKRAxfmqog7dS2CXBBwzu9Sb9qVCwDFToZyro02++bWvfW3hG2+88cYh5rKIPjTnRc54k0oLLzapN5JtaSfQb3/727OU8atf/eopW2hDoeb9PoZWRUJ51llnHbyvDZNqP5g3XCrKxdrHn/vc52bi6pVbAAAgAElEQVRFp+p/yUteMpvp97Wvfe2szLxt/+AHPxiuuuqq4aGHHjpNYKqN40Kx3ZhUp6+rlVl1f+JkFq/W5nC56aabZj/rh5PFyS4mA4qhZy960Yvm9tiq5aJ90e5xPyQ/CooT2HiBii98FXVsPLQGEkgIOGYSWIoS+PGQdY+NbNZH4c477xxuuOGG4fWvf/3wspe97LTGPfPMM8Pf/d3fDeeee+7BfBgxEuNXfuVXZt/lp76DW21ks/q4b43wYnP7ZmnLxuFFXGy/6U1vmr2vBQKxTvFrXvOaWbgw9fuLLrroYCKauIB/8MEHZ4FEHMxtG+ecc85pz4NNhRf99pcFDG3bff3xnrjof+c73znccccdB6HHIojYzvXXXz8rEksj9ZPqjEONeXXGe/vw4uGHH57tbyyvJLxY+jFUgMBKAhUXSRV1rLSzChHYEgHHzJZ0lGZujIBjZmO6YtaQp59+eohrnX//938/5bGQvpXPPvvsbD6MmITzYx/72Oy64X/+53+Gt7/97cO//uu/Dp/97GeHV7/61Qdv+f73vz+byPO///u/Z+958YtfvFk7veetEV5s8QdgUXgRuxUX3+eff/5sHeNxeNEu2J944onZhXqMzogDO9ZCbiMlosy8n2fCi0VBxXgUwzi8WDaCIX5/1113zU5cEUC0ERGZOmM/Y3/i9cIXvnCIYWdht0p40YadPf7447OQaDwSpf3sO9/5zqyNfbkIiIy82OIDUNNTAhVf+CrqSO20wgQ2XMAxs+EdpHkbJ+CY2awu+Yd/+IfZUqY/93M/NxvJ/PznP3+ygffff//se/3rXve6g3Jx/RMjt2P0d4wmj8k8Y1TN7bffPrz//e8frrvuutnPTTi+WX0uvNis/ki1ZlF40R4VidEQq4y8mHcRPS8EyIQXmdEUmbItgIn/xoiLOCnFes0x+iS7nSn4ZeFFvCdCocsvv/yg/liqKYafPfbYYwePl7RybWRKbLeV+9KXvuSxkdSnXuFtFaj4wldRx7b6azeBKQHHjM8FgZyAYybndZylI2iI7/8RNrQRFfPq+9a3vjW85S1vGeKmbUzc+YY3vGE2auOaa66Z3XiMkeCvetWrhm9+85uza4hXvvKVw6c+9anhpS996XHugm2vISC8WANtU96ybM6LNl/FsjkxYn8WjQBoIzjGj2Qsm/OizVfRX8gvmici2pEJHdojI5GMxmiR2If2yMeyERur9GHs9913331a0X40RT9ypG97vKn9LuYiaVax/33b4nfmvFilN5TZdoGKL3wVdWx7P2g/gV7AMePzQCAn4JjJeR1n6RZIxGMh8ejHK17xirnV9UFHP3FnzIcRI7f/+q//evjGN74xe2w+rl9iRMZ55513nM237TUFhBdrwm3C25Y9NtLa2I/CmDcq4SjCi3lzXmQCiWzZ9ihG29c+WMjMnTHVn8tGXoxDif4Rm3F40S/bFL9rE4M+9dRTwotNOJi04dgFKr7wLQt0+wmA+0e++p1v55AWtMaXmvgS015xh6bNLRQ/G084PH7/vLXk23k5thHbjPPJ1Jrz43L9I2hT7W6/v/baa0+ZA6gPoaeC2X6t+3mBdztvxRe6qUmaxzbH/qFSwaEFKo7LQzfSBghskIBjZoM6Q1P2UkB4scXdvm54Ebs8npxzlTkvYphVzKERIzAyj43Me/Qk6mwBQ7tQyIQXU+FC+4Iew8DiGbbxhKBTdc77CCwLL+IiYdWRF/NGV5jzYosPQE1PCVR84Vt0Thyfh1Y510ydJ/v5g9pFfnt0LEDGEwXH/3/4wx8ezj777FNWKRr/PMKLVcrFeWdRMNtCmXjut02+HO0ahxfxs7aS0nhy5nHgPe7oqd+3emPEXx/upD4kCpcLVByX5TulQgLHKOCYOUZcmyawgoDwYgWkTS1ymPBiKlBYttpI/L5N8Bn/fuSRR2bzO8SQq6kJQXu3eSt/jFcyWeWCIrY778t1366YT6JfQnXR6ilTfbwsvIj3rDPnRe/ssZH1j65VlgBednf9Qx/60KwB/XK47UJv6uertHZc57zlhqc+X+Ptz3v8qT8W53122yNP45EAffv6u+2L2t2PPujfs4pHK1PxhW/ZObF3W3aumXeO6QPHe+655+Cc2Fv09bTyZ5xxxvDGN77x4MI++v8FL3jB8JWvfGUWarRzwbJyq4QXEarGdvrz66LwItree7SRFfNG061y/u2X4M58TpStFag4Lmv3SG0EjlfAMXO8vrZOYJmA8GKZ0Ab/ftkX9db0RV/C+4v7KN+GOLf39hde/fDoNnw45pqYdxEZ2+iHEY+3PXURtOpqI/3Ij34ejfHdv1XqnNfFy8KLNn/F1Coii4Z693ZGXqx/gE19rrN316c+R8vuOi9q8XgelnkXyPMeJei3Pe8OegsS5oUI/dwv4yCm37dLLrnkYHRSjFSKpcPa/DHj+VtiRZ9YRz1eUyOaVunFii98RznyYt45pu1rvxz1eKRB/94WSsSzuN/73vcOVneK0RNx7ojgrA8vlpVbNby47bbbhltuueVgBall4cWy5bX7Pp53jBzFXEOrfJaUOTqBiuPy6FprSwROXsAxc/J9oAX7LSC82OL+dwLd4s7T9EMLLLr720YIrXN3vb/wjJEZ7VGpdRo8NcKpPboU2xuPPGp1tJFKMalU/LstAdxWqukvcJe1q9+f8aNO/Uil/k75vEe9oq5loz7mtafifLVszotFI01au1uZZcHiovBialLe6Lu2nHMEGjG5cCzv1k/sG4+XLSs3b86L1u6+7gceeOBghFyMomif5algdiq8iHb2rzZnyLzRdsKLZUfj5v2+4rjcvL3WIgLrCzhm1rfzTgJHISC8OArFE9qGE+gJwat2IwSOYuRF7Mj4Qm5qdZ11d3iqjW37EbDEa/zISl/Xuo+N9NsYP0rVz78yb3TBvGBoUaixzKjifDVv5MVUiLUs2DrMyIup8OKOO+4Ybr755tnoljZ/0MUXX3xaeLGs3KojLyLwOvPMM2cjZWKER4Qli8KLZctr9/27aDRfv7LSss+E35+8QMVxefJ7qQUEjk7AMXN0lrZEYB0B4cU6ahvyHifQDekIzTgRgVWWAJ4350V/B76/wx53lK+++uqDofaH3bFxMBLtaY9gxJ3w4w4vxhfo45EW8y7Qp+7Mt0ddxnNorGpUcb5a9NjIeE6fZeHFokcjWh9m5ryI+YGifDw68vWvf332GYvXeOTFsnKZ8CIebWt9fO655x5MYDzvkbg2Eag5L1b9VG9/uYrjcvuV7AGB/y/gmPFpIHCyAsKLk/U/VO1OoIfi8+YtF1hlCeBlF6hB0K+08+Uvf/lgmP1hJxxsj3jExWhsazwfxnFO2Bn7NbX6w/hRiKnwYtzu8cdk2YiEeR+rivPVUc55Efsxb7WRtrrIqquNtNEuMYlwTPLbHr947LHHJsOLReWy4UXsR1satc1hNP7sWW1ky0+Gh2h+xXF5iOZ5K4GNE3DMbFyXaNCeCQgvtrjDnUC3uPM0/dACU3fGs3fXoxHtwi3mkYg74jHE/jBLPc5b1WaVUSBjlHUfGxmv7tO2O95ePxIjysQjBvPm4ei3sWipzk0NL6JdvUv8f5tst29zP6FuCzBiYuP2Gq8e009kHGXGI1PGI3v6FYqmHi/pV3BqIUlfbt6cF63d0YZ+Cef4/3HI0sKMfr/70UjLJmGOfYz9GM+J0U/QfOgD3AZKBHyPKGFWyQ4JOGZ2qDPtylYKCC+2stv+r9FOoFvceZp+aIGjmvOiv0Bd95GIfmdWGVER5Vcpt054sWi0ybzVRt71rnfNbc94tMa8ST6XdWjF+aqijmX76fcEtknAMbNNvaWtmyDgmNmEXtCGfRYQXmxx7y8aIt0uyNqqC0e5m+O7gOO7fFN1tQugmIyuLREYF4rZ+QXmLTE5Xpq0Xz71KPd9k7bVr/oQF8KXXnrp8Pjjjw/H0eebtN+tLassARxlV7m73kZFhGE/gWZ28s55d6zHd+vH4UX/6EosP9xeq4YX4xUm+pECsa0+lOlHgLS77cva3ZZnHW8r87mo+MJXUUdmn5UlsOkCjplN7yHt2zQBx8ym9Yj27JuA8GKLe/ykwouebNWl8aaWHZx3wbaoS2I7H/7wh4ezzz77YPnIKD/v51vcvUubPi+8iDfGnXQvApskUPGFr6KOTTLVFgKHFXDMHFbQ+/dNwDGzbz1ufzdNQHixaT2SaE82vGijFqKKNmFcTCTY/7zdoW1L7MU8APfff//sjn67e9wCiw984APDDTfcMHvuub0v/h3PQrdXewZ6PPIiysTvHnrooSGe1f6t3/qt4Z/+6Z+GNrlhvypDP3Fi284ZZ5wxvPGNbzyYmyDukL/gBS8YvvKVrxyEGv3d4vY8+Mtf/vKD5/rvvvvuWTPHK09MtT/Kte3FtuLueLSh3aXvnyEfO4Xh7bffPtvP+F0sJRhOfb393fD+Lnnsb6vj7//+72fbiMn/nnrqqQPn2M4FF1wwvPKVr5z9PF6HmbMh8RFUlMDKAhVf+CrqWHmHFSSwBQKOmS3oJE3cKAHHzEZ1h8bsoYDwYos7PRNe9CsPXHLJJQcX8DfffPMpj27EBXq8rrnmmlmZJ598chYy9DPcx+/boyLx8/7f/UR+/bPxMXt+XHTPe2wklubrHyFp7RiPIGjhRQQCseRgXNjHCI72KEr8/7333jsLByIkiLbHIyRtfoH4WexXvCIoiXbFEPtoW7zmtT9WBRgvI3jhhRfO6u/3M8rFYwoRUrzwhS+c/fvaa6+djYSINjz88MOn1TVelrBf7aGtOhD70fdbq3dfHhHZ4sNU038sUPGFr6IOHUpglwQcM7vUm/alQsAxU6GsDgLzBYQXW/zpGIcX45nfY9fa3f15SyR+7GMfG9773vcOt95662w0QXu1GfQvuuiig0cQ2vP/F1988WR4MZ5noq9zWXgRdbd5G+Ii/frrrx+uu+66U9oUbWvbjLIRGrSgIkKBK6+88rRZ9tv+tEcsWnjR9mvRoyt9+++5555T5pKYt72or3cahyEtbOjrjdESfdAyXoGg/13/qEj/7y3+GGv6nghUfOGrqGNPustu7omAY2ZPOtpuHpmAY+bIKG2IwFoCwou12DbjTZmRF+MVAuYtvdceJ4k9jBEK/bKRq4QX4yX42vZWCS8iLGghxF133TXceeedQ//ISB9exAiOGDUSAcd99903nH/++UMfqrTHXuKxlPaKIKeFF22/xuHFvPbfdNNNs820RzjG4UVfTwuNxmFKHzaMw4v+UZV4f/94SIwKaY/TCC8249jTirxAxRe+ijrye+4dBDZXwDGzuX2jZZsp4JjZzH7Rqv0REF5scV9nwot5Iy/aYxWNYd6Ign4kxryRF+NHNbIjL9rjH3HhHvNXTE06OR4NEY+OfP3rX5+NHIlXe4TlgQceGB555JHTLvoXhRfjERCZkRd9yNMsx5OZLgov+oCi/0hOLVPZRm8YebHFB+8eNr3iC19FHXvYdXZ5hwUcMzvcuXbtWAQcM8fCaqMEVhYQXqxMtXkFM+HFvDkvpkYHxJ62OS/i33HXv5/zoQ8J+jkv+vCijXxo719l5EWU7eeF6B9jafrjQCRGLLTRHdHGqfDimWeemU1uGXNUrBpejNu/6pwXra7LL7/8lJEg8UjNvPBiPOdFlHvwwQdn83WEqZEXm3fsaVFeIM5XXgQIECBAYNsFnnvuuW3fBe0nsLUCwout7bphyIQXsZvzVhvpV+UYPzZyzjnnDG1VjrZySD+iILbbHnmIkOM973nPwQoiN95446zONi/FeMLONgHlo48+OrtAj7BiaknVvov63/dBQYzSmGpXWwnlbW972/DFL37xlAlDY0WO/vGNthJJWwGlb38LH2Jyz1gN5HWve93w7LPPTq420uYZWXXkRex3v9pIe2RkyqMPQFp/9quWbPHHWdN3XKDiblVFHTveTXZvzwQcM3vW4Xb30AKOmUMT2gCBQwkILw7Fd7JvPs4TaHtMZOpxiOPc6zavxtQjI8dZb2bbU5OZZt6vLIF9FDjO81XzrKhjH/vOPu+ugGNmd/vWnh2PgGPmeFxtlcCqAsKLVaU2sNxxnkCrw4tWXzC3ySk3ibwftRLtMtphk3pHW7ZB4DjPV8KLbfgEaOMmClQcl5u439pEYF0Bx8y6ct5H4GgEhBdH43giW3ECPRF2lRIgsIZAxfmqoo41dt1bCGysgGNmY7tGwzZUwDGzoR2jWXsjILzY4q52At3iztN0AnsmUHG+qqhjz7rN7u64gGNmxzvY7h25gGPmyEltkEBKQHiR4tqswk6gm9UfWkOAwHyBivNVRR36mMAuCThmdqk37UuFgGOmQlkdBBZ/n4z1656z7M/2fUycQLevz7SYwL4KVJyvKurY1/6z37sp4JjZzX61V8cn4Jg5PltbJrCKgJEXqyhtaBkn0A3tGM0iQOA0gYrzVasjlkCOJZxjqeT+1Sbabb+/6aabhlgyub36pYj75Yvb72OZ5FgyOpZOjt+/853vnC2/HMsa96+pVZP6JamjbFt6un9fTAwcyzG3paOn2tDKf/SjHx0uvvji4X3ve99sOepoU7za5Mex5HO8+jbH/0c7PvGJTxzUET/rl4we74uP8m4LVByXuy1o7/ZNwDGzbz1ufzdNQHixaT2SaI8TaAJLUQIETlSg4nw1Di/6cKJfQSku6CPcWBZejMOJCCXi9fGPfzwVXkRg8OCDDx4EH1PhSbTv+uuvn23/ggsuGMbLRcc2HnnkkVNWY4pwow8v2nYvv/zyg/ePA5EWovQrJgkvTvTQONHKK47LE91BlRM4YgHHzBGD2hyBpIDwIgm2ScWdQDepN7SFAIFFAhXnq0XhRbStjYi44oor1govIgiIURGxnPNjjz220siLeaM8+m2dddZZszDkrrvuGt761rfORkf0oymi7auEF/3Ikb4v+p+37Tz55JMH4Y3wYn+P3Yrjcn917fkuCjhmdrFX7dM2CQgvtqm3Rm11At3iztN0AnsmUHG+WhRe9CHCYUZenH/++bNRDas+NhIhxUc+8pGDURfzuj1ChXjFtiNkufTSS097pGXRyIszzzxzuOqqq2bhR/8oTGyzb8MDDzwwPPHEE7PttyDmmWeeGa6++urh1ltvPe0RmD37mO7d7lYcl3uHaod3WsAxs9Pda+e2QEB4sQWdNK+JTqBb3HmaTmDPBCrOV8vmvIh5IiIcWHfOi8suu+zgsY1MeNFCghhhMfVqj4xcd911s/AgwoaHH3549nhKey0bebEovOgfL2nhRQQqEXZcdNFFQ4xEEV7s2QH5492tOC73U9Ze76qAY2ZXe9Z+bYuA8GJbemqinU6gW9x5mk5gzwQqzlfLHhtp5KuGF+M5L/oRDN/5zndWemxklZEXyyYHjXYfdXjR5u2IOTNuu+224ZZbbjHyYs+OydjdiuNyD1nt8g4LOGZ2uHPt2lYICC+2opumG+kEusWdp+kE9kyg4ny1anjRT97ZP2KxbELOfm6I6L5VVhuZF5S0OS7uvPPO2dwT8epHWoxXLFkWXsRqI6vOeRGPjbS6op7vfve7w49+9CPhxZ4dk8KLPexwu3xogYq/ZYdupA0Q2GEB4cUWd64T6BZ3nqYT2DOBivPVquFF0LeL9ph8s02YGfNFxKMlEWhMPRayzsiLqGveaiOxKsiiyUP7OS5WCS9WXW2kDy/ae55++ulTlk/ds4/n3u5uxXG5t7h2fCcFHDM72a12aosEhBdb1FnjpjqBbnHnaTqBPROoOF9lwosWYNx9990HPfG5z33uYLLLqUc5XvKSlxxc4C/6/X333Te0iT3bxtsSpe3/2/wb8x4radtvYcoq4UVsu40qeeihh2ZVxeSksV8xMqMFKX14ET8bL6e6Zx/Nvd7diuNyr4Ht/M4JOGZ2rkvt0JYJCC+2rMP65jqBbnHnaTqBPROoOF9V1LFn3WZ3d1zAMbPjHWz3jlzAMXPkpDZIICUgvEhxbVZhJ9DN6g+tIUBgvkDF+aqiDn1MYJcEHDO71Jv2pULAMVOhrA4Ci79PPm8Yhueee+45Tlsm4AS6ZR2muQT2WKDifFVRxx53oV3fQQHHzA52ql06VgHHzLHy2jiBpQJGXiwl2twCTqCb2zdaRoDAqQIV56uKOvQrgV0ScMzsUm/alwoBx0yFsjoIzBcQXmzxp8MJdIs7T9MJ7JlAxfmqoo496za7u+MCjpkd72C7d+QCjpkjJ7VBAikB4UWKa7MKO4FuVn9oDQECi5Py43480TnRJ5BATsAxk/NSmoBjxmeAwMkKCC9O1v9QtTuBHorPmwkQKBSoOF9V1FFIpioCxy7gmDl2YhXsmIBjZsc61O5snYDwYuu67P832Al0iztP0wnsmUDF+aqijj3rNru74wKOmR3vYLt35AKOmSMntUECKYGD8CL1LoUJECBAgAABAgQIECBAgAABAoUClkotxFYVAQIECBAgQIAAAQIECBAgkBPw2EjOS2kCBAgQIECAAAECBAgQIECgWEB4UQyuOgIECBAgQIAAAQIECBAgQCAnILzIeSlNgAABAgQIECBAgAABAgQIFAsIL4rBVUeAAAECBAgQIECAAAECBAjkBIQXOS+lCRAgQIAAAQIECBAgQIAAgWIB4UUxuOoIECBAgAABAgQIECBAgACBnIDwIuelNAECBAgQIECAAAECBAgQIFAsILwoBlcdAQIECBAgQIAAAQIECBAgkBMQXuS8lCZAgAABAgQIECBAgAABAgSKBYQXxeCqI0CAAAECBAgQIECAAAECBHICwoucl9IECBAgQIAAAQIECBAgQIBAsYDwohhcdQQIECBAgAABAgQIECBAgEBOQHiR81KaAAECBAgQIECAAAECBAgQKBYQXhSDq44AAQIECBAgQIAAAQIECBDICQgvcl5KEyBAgAABAgQIECBAgAABAsUCwoticNURIECAAAECBAgQIECAAAECOQHhRc5LaQIECBAgQIAAAQIECBAgQKBYQHhRDK46AgQIECBAgAABAgQIECBAICcgvMh5KU2AAAECBAgQIECAAAECBAgUCwgvisFVR4AAAQIECBAgQIAAAQIECOQEhBc5L6UJECBAgAABAgQIECBAgACBYgHhRTG46ggQIECAAAECBAgQIECAAIGcgPAi56U0AQIECBAgQIAAAQIECBAgUCwgvCgGVx0BAgQIECBAgAABAgQIECCQExBe5LyUJkCAAAECBAgQIECAAAECBIoFhBfF4KojQIAAAQIECBAgQIAAAQIEcgLCi5yX0gQIECBAgAABAgQIECBAgECxgPCiGFx1BAgQIECAAAECBAgQIECAQE5AeJHzUpoAAQIECBAgQIAAAQIECBAoFhBeFIOrjgABAgQIECBAgAABAgQIEMgJCC9yXkoTIECAAAECBAgQIECAAAECxQLCi2Jw1REgQIAAAQIECBAgQIAAAQI5AeFFzktpAgQIECBAgAABAgQIECBAoFhAeFEMrjoCBAgQIECAAAECBAgQIEAgJyC8yHkpTYAAAQIECBAgQIAAAQIECBQLCC+KwVVHgAABAgQIECBAgAABAgQI5ASEFzkvpQkQIECAAAECBAgQIECAAIFiAeFFMbjqCBAgQIAAAQIECBAgQIAAgZyA8CLnpTQBAgQIECBAgAABAgQIECBQLCC8KAZXHQECBAgQIECAAAECBAgQIJATEF7kvJQmQIAAAQIECBAgQIAAAQIEigWEF8XgqiNAgAABAgQIECBAgAABAgRyAsKLnJfSBAgQIECAAAECBAgQIECAQLGA8KIYXHUECBAgQIAAAQIECBAgQIBATkB4kfNSmgABAgQIECBAgAABAgQIECgWEF4Ug6uOAAECBAgQIECAAAECBAgQyAkIL3JeShMgQIAAAQIECBAgQIAAAQLFAsKLYnDVESBAgAABAgQIECBAgAABAjkB4UXOS2kCBAgQIECAAAECBAgQIECgWEB4UQyuOgIECBAgQIAAAQIECBAgQCAnILzIeSlNgAABAgQIECBAgAABAgQIFAsIL4rBVUeAAAECBAgQIECAAAECBAjkBIQXOS+lCRAgQIAAAQIECBAgQIAAgWIB4UUxuOoIECBAgAABAgQIECBAgACBnIDwIuelNAECBAgQIECAAAECBAgQIFAsILwoBlcdAQIECBAgQIAAAQIECBAgkBMQXuS8lCZAgAABAgQIECBAgAABAgSKBYQXxeCqI0CAAAECBAgQIECAAAECBHICwoucl9IECBAgQIAAAQIECBAgQIBAsYDwohhcdQQIECBAgAABAgQIECBAgEBOQHiR81KaAAECBAgQIECAAAECBAgQKBYQXhSDq44AAQIECBAgQIAAAQIECBDICQgvcl5KEyBAgAABAgQIECBAgAABAsUCwoticNURIECAAAECBAgQIECAAAECOQHhRc5LaQIECBAgQIAAAQIECBAgQKBYQHhRDK46AgQIECBAgAABAgQIECBAICcgvMh5KU2AAAECBAgQIECAAAECBAgUCwgvisFVR4AAAQIECBAgQIAAAQIECOQEhBc5L6UJECBAgAABAgQIECBAgACBYgHhRTG46ggQIECAAAECBAgQIECAAIGcgPAi56U0AQIECBAgQIAAAQIECBAgUCwgvCgGVx0BAgQIECBAgAABAgQIECCQExBe5LyUJkCAAAECBAgQIECAAAECBIoFhBfF4KojQIAAAQIECBAgQIAAAQIEcgLCi5yX0gQIECBAgAABAgQIECBAgECxgPCiGFx1BAgQIECAAAECBAgQIECAQE5AeJHzUpoAAQIECBAgQIAAAQIECBAoFhBeFIOrjgABAgQIECBAgAABAgQIEMgJCC9yXkoTIECAAAECBAgQIECAAAECxQLCi2Jw1REgQIAAAQIECBAgQIAAAQI5AeFFzktpAgQIEL09B4gAACAASURBVCBAgAABAgQIECBAoFhAeFEMrjoCBAgQIECAAAECBAgQIEAgJyC8yHkpTYAAAQIECBAgQIAAAQIECBQLCC+KwVVHgAABAgQIECBAgAABAgQI5ASEFzkvpQkQIECAAAECBAgQIECAAIFiAeFFMbjqCBAgQIAAAQIECBAgQIAAgZyA8CLnpTQBAgQIECBAgAABAgQIECBQLCC8KAZXHQECBAgQIECAAAECBAgQIJATEF7kvJQmQIAAAQIECBAgQIAAAQIEigWEF8XgqiNAgAABAgQIECBAgAABAgRyAsKLnJfSBAgQIECAAAECBAgQIECAQLGA8KIYXHUECBAgQIAAAQIECBAgQIBATkB4kfNSmgABAgQIECBAgAABAgQIECgWEF4Ug6uOAAECBAgQIECAAAECBAgQyAkIL3JeShMgQIAAAQIECBAgQIAAAQLFAsKLYnDVESBAgAABAgQIECBAgAABAjkB4UXOS2kCBAgQIECAAAECBAgQIECgWEB4UQyuOgIECBAgQIAAAQIECBAgQCAnILzIeSlNgAABAgQIECBAgAABAgQIFAsIL4rBVUeAAAECBAgQIECAAAECBAjkBIQXOS+lCRAgQIAAAQIECBAgQIAAgWIB4UUxuOoIECBAgAABAgQIECBAgACBnIDwIuelNAECBAgQIECAAAECBAgQIFAsILwoBlcdAQIECBAgQIAAAQIECBAgkBMQXuS8lCZAgAABAgQIECBAgAABAgSKBYQXxeCqI0CAAAECBAgQIECAAAECBHICwoucl9IECBAgQIAAAQIECBAgQIBAsYDwohhcdQQIECBAgAABAgQIECBAgEBOQHiR81KaAAECBAgQIECAAAECBAgQKBYQXhSDq44AAQIECBAgQIAAAQIECBDICQgvcl5KEyBAgAABAgQIECBAgAABAsUCwoticNURIECAAAECBAgQIECAAAECOQHhRc5LaQIECBAgQIAAAQIECBAgQKBYQHhRDK46AgQIECBAgAABAgQIECBAICcgvMh5KU2AAAECBAgQIECAAAECBAgUCwgvisFVR4AAAQIECBAgQIAAAQIECOQEhBc5L6UJECBAgAABAgQIECBAgACBYgHhRTG46ggQIECAAAECBAgQIECAAIGcgPAi56U0AQIECBAgQIAAAQIECBAgUCwgvCgGVx0BAgQIECBAgAABAgQIECCQExBe5LyUJkCAAAECBAgQIECAAAECBIoFhBfF4KojQIAAAQIECBAgQIAAAQIEcgLCi5yX0gQIECBAgAABAgQIECBAgECxgPCiGFx1BAgQIECAAAECBAgQIECAQE5AeJHzUpoAAQIECBAgQIAAAQIECBAoFhBeFIOrjgABAgQIECBAgAABAgQIEMgJCC9yXkoTIECAAAECBAgQIECAAAECxQLCi2Jw1REgQIAAAQIECBAgQIAAAQI5AeFFzktpAgQIECBAgAABAgQIECBAoFhAeFEMrjoCBAgQIECAAAECBAgQIEAgJyC8yHkpTYAAAQIECBAgQIAAAQIECBQLCC+KwVVHgAABAgQIECBAgAABAgQI5ASEFzkvpQkQIECAAAECBAgQIECAAIFiAeFFMbjqCBAgQIAAAQIECBAgQIAAgZyA8CLnpTQBAgQIECBAgAABAgQIECBQLCC8KAZXHQECBAgQIECAAAECBAgQIJATEF7kvJQmQIAAAQIECBAgQIAAAQIEigWEF8XgqiNAgAABAgQIECBAgAABAgRyAsKLnJfSBAgQIECAAAECBAgQIECAQLGA8KIYXHUECBAgQIAAAQIECBAgQIBATkB4kfNSmgABAgQIECBAgAABAgQIECgWEF4Ug6uOAAECBAgQIECAAAECBAgQyAkIL3JeShMgQIAAAQIECBAgQIAAAQLFAsKLYnDVESBAgAABAgQIECBAgAABAjkB4UXOS2kCBAgQIECAAAECBAgQIECgWEB4UQyuOgIECBAgQIAAAQIECBAgQCAnILzIeSlNgAABAgQIECBAgAABAgQIFAsIL4rBVUeAAAECBAgQIECAAAECBAjkBIQXOS+lCRAgQIAAAQIECBAgQIAAgWIB4UUxuOoIECBAgAABAgQIECBAgACBnIDwIuelNAECBAgQIECAAAECBAgQIFAsILwoBlcdAQIECBAgQIAAAQIECBAgkBMQXuS8lCZAgAABAgQIECBAgAABAgSKBYQXxeCqI0CAAAECBAgQIECAAAECBHICwoucl9IECBAgQIAAAQIECBAgQIBAsYDwohhcdQQIECBAgAABAgQIECBAgEBOQHiR81KaAAECBAgQIECAAAECBAgQKBYQXhSDq44AAQIECBAgQIAAAQIECBDICQgvcl5KEyBAgAABAgQIECBAgAABAsUCwoticNURIECAAAECBAgQIECAAAECOQHhRc5LaQIECBAgQIAAAQIECBAgQKBYQHhRDK46AgQIECBAgAABAgQIECBAICcgvMh5KU2AAAECBAgQIECAAAECBAgUCwgvisFVR4AAAQIECBAgQIAAAQIECOQEhBc5L6UJECBAgAABAgQIECBAgACBYgHhRTG46ggQIECAAAECBAgQIECAAIGcgPAi56U0AQIECBAgQIAAAQIECBAgUCwgvCgGVx0BAgQIECBAgAABAgQIECCQExBe5LyUJkCAAAECBAgQIECAAAECBIoFhBfF4KojQIAAAQIECBAgQIAAAQIEcgLCi5yX0gQIECBAgAABAgQIECBAgECxgPCiGFx1BAgQIECAAAECBAgQIECAQE5AeJHzUpoAAQIECBAgQIAAAQIECBAoFhBeFIOrjgABAgQIECBAgAABAgQIEMgJCC9yXkoTIECAAAECBAgQIECAAAECxQLCi2Jw1REgQIAAAQIECBAgQIAAAQI5AeFFzktpAgQIECBAgAABAgQIECBAoFhAeFEMrjoCBAgQIECAAAECBAgQIEAgJyC8yHkpTYAAAQIECBAgQIAAAQIECBQLCC+KwVVHgAABAgQIECBAgAABAgQI5ASEFzkvpQkQIECAAAECBAgQIECAAIFiAeFFMbjqCBAgQIAAAQIECBAgQIAAgZyA8CLnpTQBAgQIECBAgAABAgQIECBQLCC8KAZXHQECBAgQIECAAAECBAgQIJATEF7kvJQmQIAAAQIECBAgQIAAAQIEigWEF8XgqiNAgAABAgQIECBAgAABAgRyAsKLnJfSBAgQIECAAAECBAgQIECAQLGA8KIYXHUECBAgQIAAAQIECBAgQIBATkB4kfNSmgABAgQIECBAgAABAgQIECgWEF4Ug6uOAAECBAgQIECAAAECBAgQyAkIL3JeShMgQIAAAQIECBAgQIAAAQLFAsKLYnDVESBAgAABAgQIECBAgAABAjkB4UXOS2kCBAgQIECAAAECBAgQIECgWEB4UQyuOgIECBAgQIAAAQIECBAgQCAnILzIeSlNgAABAgQIECBAgAABAgQIFAsIL4rBVUeAAAECBAgQIECAAAECBAjkBIQXOS+lCRAgQIAAAQIECBAgQIAAgWIB4UUxuOoIECBAgAABAgQIECBAgACBnIDwIuelNAECBAgQIECAAAECBAgQIFAsILwoBlcdAQIECBAgQIAAAQIECBAgkBMQXuS8lCZAgAABAgQIECBAgAABAgSKBYQXxeCqI0CAAAECBAgQIECAAAECBHICwoucl9IECBAgQIAAAQIECBAgQIBAsYDwohhcdQQIECBAgAABAgQIECBAgEBOQHiR81KaAAECBAgQIECAAAECBAgQKBYQXhSDq44AAQIECBAgQIAAAQIECBDICQgvcl5KEyBAgAABAgQIECBAgAABAsUCwoticNURIECAAAECBAgQIECAAAECOQHhRc5LaQIECBAgQIAAAQIECBAgQKBYQHhRDK46AgQIECBAgAABAgQIECBAICcgvMh5KU2AAAECBAgQIECAAAECBAgUCwgvisFVR4AAAQIECBAgQIAAAQIECOQEhBc5L6UJECBAgAABAgQIECBAgACBYgHhRTG46ggQIECAAAECBAgQIECAAIGcgPAi56U0AQIECBAgQIAAAQIECBAgUCwgvCgGVx0BAgQIECBAgAABAgQIECCQExBe5LyUJkCAAAECBAgQIECAAAECBIoFhBfF4KojQIAAAQIECBAgQIAAAQIEcgLCi5yX0gQIECBAgAABAgQIECBAgECxgPCiGFx1BAgQIECAAAECBAgQIECAQE5AeJHzUpoAAQIECBAgQIAAAQIECBAoFhBeFIOrjgABAgQIECBAgAABAgQIEMgJCC9yXkoTIECAAAECBAgQIECAAAECxQLCi2Jw1REgQIAAAQIECBAgQIAAAQI5AeFFzktpAgQIECBAgAABAgQIECBAoFhAeFEMrjoCBAgQIECAAAECBAgQIEAgJyC8yHkpTYAAAQIECBAgQIAAAQIECBQLCC+KwVVHgAABAgQIECBAgAABAgQI5ASEFzkvpQkQIECAAAECBAgQIECAAIFiAeFFMbjqCBAgQIAAAQIECBAgQIAAgZyA8CLnpTQBAgQIECBAgAABAgQIECBQLCC8KAZXHQECBAgQIECAAAECBAgQIJATEF7kvJQmQIAAAQIECBAgQIAAAQIEigWEF8XgqiNAgAABAgQIECBAgAABAgRyAsKLnJfSBAgQIECAAAECBAgQIECAQLGA8KIYXHUECBAgQIAAAQIECBAgQIBATkB4kfNSmgABAgQIECBAgAABAgQIECgWEF4Ug6uOAAECBAgQIECAAAECBAgQyAkIL3JeShMgQIAAAQIECBAgQIAAAQLFAsKLYnDVESBAgAABAgQIECBAgAABAjkB4UXOS2kCBAgQIECAAAECBAgQIECgWEB4UQyuOgIECBAgQIAAAQIECBAgQCAnILzIeSlNgAABAgQIECBAgAABAgQIFAsIL4rBVUeAAAECBAgQIECAAAECBAjkBIQXOS+lCRAgQIAAAQIECBAgQIAAgWIB4UUxuOoIECBAgAABAgQIECBAgACBnIDwIuelNAECBAgQIECAAAECBAgQIFAsILwoBlcdAQIECBAgQIAAAQIECBAgkBMQXuS8lCZAgAABAgQIECBAgAABAgSKBYQXxeCqI0CAAAECBAgQIECAAAECBHICwoucl9IECBAgQIAAAQIECBAgQIBAsYDwohhcdQQIECBAgAABAgQIECBAgEBOQHiR81KaAAECBAgQIECAAAECBAgQKBYQXhSDq44AAQIECBAgQIAAAQIECBDICQgvcl5KEyBAgAABAgQIECBAgAABAsUCwoticNURIECAAAECBAgQIECAAAECOQHhRc5LaQIECBAgQIAAAQIECBAgQKBYQHhRDK46AgQIECBAgAABAgQIECBAICcgvMh5KU2AAAECBAgQIECAAAECBAgUCwgvisFVR4AAAQIECBAgQIAAAQIECOQEhBc5L6UJECBAgAABAgQIECBAgACBYgHhRTG46ggQIECAAAECBAgQIECAAIGcgPAi56U0AQIECBAgQIAAAQIECBAgUCwgvCgGVx0BAgQIECBAgAABAgQIECCQExBe5LyUJkCAAAECBAgQIECAAAECBIoFhBfF4KojQIAAAQIECBAgQIAAAQIEcgLCi5yX0gQIECBAgAABAgQIECBAgECxgPCiGFx1BAgQIECAAAECBAgQIECAQE5AeJHzUpoAAQIECBAgQIAAAQIECBAoFhBeFIOrjgABAgQIECBAgAABAgQIEMgJCC9yXkoTIECAAAECBAgQIECAAAECxQLCi2Jw1REgQIAAAQIECBAgQIAAAQI5AeFFzktpAgQIECBAgAABAgQIECBAoFhAeFEMrjoCBAgQIECAAAECBAgQIEAgJyC8yHkpTYAAAQIECBAgQIAAAQIECBQLCC+KwVVHgAABAgQIECBAgAABAgQI5ASEFzkvpQkQIECAAAECBAgQIECAAIFiAeFFMbjqCBAgQIAAAQIECBAgQIAAgZyA8CLnpTQBAgQIECBAgAABAgQIECBQLCC8KAZXHQECBAgQIECAAAECBAgQIJATEF7kvJQmQIAAAQIECBAgQIAAAQIEigWEF8XgqiNAgAABAgQIECBAgAABAgRyAsKLnJfSBAgQIECAAAECBAgQIECAQLGA8KIYXHUECBAgQIAAAQIECBAgQIBATkB4kfNSmgABAgQIECBAgAABAgQIECgWEF4Ug6uOAAECBAgQIECAAAECBAgQyAkIL3JeShMgQIAAAQIECBAgQIAAAQLFAsKLYnDVESBAgAABAgQIECBAgAABAjkB4UXOS2kCBAgQIECAAAECBAgQIECgWEB4UQyuOgIECBAgQIAAAQIECBAgQCAnILzIeSlNgAABAgQIECBAgAABAgQIFAsIL4rBVUeAAAECBAgQIECAAAECBAjkBIQXOS+lCRAgQIAAAQIECBAgQIAAgWIB4UUxuOoIECBAgAABAgQIECBAgACBnIDwIuelNAECBAgQIECAAAECBAgQIFAsILwoBlcdAQIECBAgQIAAAQIECBAgkBMQXuS8lCZAgAABAgQIECBAgAABAgSKBYQXxeCqI0CAAAECBAgQIECAAAECBHICwoucl9IECBAgQIAAAQIECBAgQIBAsYDwohhcdQQIECBAgAABAgQIECBAgEBOQHiR81KaAAECBAgQIECAAAECBAgQKBYQXhSDq44AAQIECBAgQIAAAQIECBDICQgvcl5KEyBAgAABAgQIECBAgAABAsUCwoticNURIECAAAECBAgQIECAAAECOQHhRc5LaQIECBAgQIAAAQIECBAgQKBYQHhRDK46AgQIECBAgAABAgQIECBAICcgvMh5KU2AAAECBAgQIECAAAECBAgUCwgvisFVR4AAAQIECBAgQIAAAQIECOQEhBc5L6UJECBAgAABAgQIECBAgACBYgHhRTG46ggQIECAAAECBAgQIECAAIGcgPAi56U0AQIECBAgQIAAAQIECBAgUCwgvCgGVx0BAgQIECBAgAABAgQIECCQExBe5LyUJkCAAAECBAgQIECAAAECBIoFhBfF4KojQIAAAQIECBAgQIAAAQIEcgLCi5yX0gQIECBAgAABAgQIECBAgECxgPCiGFx1BAgQIECAAAECBAgQIECAQE5AeJHzUpoAAQIECBAgQIAAAQIECBAoFhBeFIOrjgABAgQIECBAgAABAgQIEMgJCC9yXkoTIECAAAECBAgQIECAAAECxQLCi2Jw1REgQIAAAQIECBAgQIAAAQI5AeFFzktpAgQIECBAgAABAgQIECBAoFhAeFEMrjoCBAgQIECAAAECBAgQIEAgJyC8yHkpTYAAAQIECBAgQIAAAQIECBQLCC+KwVVHgAABAgQIECBAgAABAgQI5ASEFzkvpQkQIECAAAECBAgQIECAAIFiAeFFMbjqCBAgQIAAAQIECBAgQIAAgZyA8CLnpTQBAgQIECBAgAABAgQIECBQLCC8KAZXHQECBAgQIECAAAECBAgQIJATEF7kvJQmQIAAAQIECBAgQIAAAQIEigWEF8XgqiNAgAABAgQIECBAgAABAgRyAsKLnJfSBAgQIECAAAECBAgQIECAQLGA8KIYXHUECBAgQIAAAQIECBAgQIBATkB4kfNSmgABAgQIECBAgAABAgQIECgWEF4Ug6uOAAECBAgQIECAAAECBAgQyAkIL3JeShMgQIAAAQIECBAgQIAAAQLFAsKLYnDVESBAgAABAgQIECBAgAABAjkB4UXOS2kCBAgQIECAAAECBAgQIECgWEB4UQyuOgIECBAgQIAAAQIECBAgQCAnILzIeSlNgAABAgQIECBAgAABAgQIFAsIL4rBVUeAAAECBAgQIECAAAECBAjkBIQXOS+lCRAgQIAAAQIECBAgQIAAgWIB4UUxuOoIECBAgAABAgQIECBAgACBnIDwIuelNAECBAgQIECAAAECBAgQIFAsILwoBlcdAQIECBAgQIAAAQIECBAgkBMQXuS8lCZAgAABAgQIECBAgAABAgSKBYQXxeCqI0CAAAECBAgQIECAAAECBHICwoucl9IECBAgQIAAAQIECBAgQIBAsYDwohhcdQQIECBAgAABAgQIECBAgEBOQHiR81KaAAECBAgQIECAAAECBAgQKBYQXhSDq44AAQIECBAgQIAAAQIECBDICQgvcl5KEyBAgAABAgQIECBAgAABAsUCwoticNURIECAAAECBAgQIECAAAECOQHhRc5LaQIECBAgQIAAAQIECBAgQKBYQHhRDK46AgQIECBAgAABAgQIECBAICcgvMh5KU2AAAECBAgQIECAAAECBAgUCwgvisFVR4AAAQIECBAgQIAAAQIECOQEhBc5L6UJECBAgAABAgQIECBAgACBYgHhRTG46ggQIECAAAECBAgQIECAAIGcgPAi56U0AQIECBAgQIAAAQIECBAgUCwgvCgGVx0BAgQIECBAgAABAgQIECCQExBe5LyUJkCAAAECBAgQIECAAAECBIoFhBfF4KojQIAAAQIECBAgQIAAAQIEcgLCi5yX0gQIECBAgAABAgQIECBAgECxgPCiGFx1BAgQIECAAAECBAgQIECAQE5AeJHzUpoAAQIECBAgQIAAAQIECBAoFhBeFIOrjgABAgQIECBAgAABAgQIEMgJCC9yXkoTIECAAAECBAgQIECAAAECxQLCi2Jw1REgQIAAAQIECBAgQIAAAQI5AeFFzktpAgQIECBAgAABAgQIECBAoFhAeFEMrjoCBAgQIECAAAECBAgQIEAgJyC8yHkpTYAAAQIECBAgQIAAAQIECBQLCC+KwVVHgAABAgQIECBAgAABAgQI5ASEFzkvpQkQIECAAAECBAgQIECAAIFiAeFFMbjqCBAgQIAAAQIECBAgQIAAgZyA8CLnpTQBAgQIECBAgAABAgQIECBQLCC8KAZXHQECBAgQIECAAAECBAgQIJATEF7kvJQmQIAAAQIECBAgQIAAAQIEigWEF8XgqiNAgAABAgQIECBAgAABAgRyAsKLnJfSBAgQIECAAAECBAgQIECAQLGA8KIYXHUECBAgQIAAAQIECBAgQIBATkB4kfNSmgABAgQIECBAgAABAgQIECgWEF4Ug6uOAAECBAgQIECAAAECBAgQyAkIL3JeShMgQIAAAQIECBAgQIAAAQLFAsKLYnDVESBAgAABAgQIECBAgAABAjkB4UXOS2kCBAgQIECAAAECBAgQIECgWEB4UQyuOgIECBAgQIAAAQIECBAgQCAnILzIeSlNgAABAgQIECBAgAABAgQIFAsIL4rBVUeAAAECBAgQIECAAAECBAjkBIQXOS+lCRAgQIAAAQIECBAgQIAAgWIB4UUxuOoIECBAgAABAgQIECBAgACBnIDwIuelNAECBAgQIECAAAECBAgQIFAsILwoBlcdAQIECBAgQIAAAQIECBAgkBMQXuS8lCZAgAABAgQIECBAgAABAgSKBYQXxeCqI0CAAAECBAgQIECAAAECBHICwoucl9IECBAgQIAAAQIECBAgQIBAsYDwohhcdQQIECBAgAABAgQIECBAgEBOQHiR81KaAAECBAgQIECAAAECBAgQKBYQXhSDq44AAQIECBAgQIAAAQIECBDICQgvcl5KEyBAgAABAgQIECBAgAABAsUCwoticNURIECAAAECBAgQIECAAAECOQHhRc5LaQIECBAgQIAAAQIECBAgQKBYQHhRDK46AgQIECBAgAABAgQIECBAICcgvMh5KU2AAAECBAgQIECAAAECBAgUCwgvisFVR4AAAQIECBAgQIAAAQIECOQEhBc5L6UJECBAgAABAgQIECBAgACBYgHhRTG46ggQIECAAAECBAgQIECAAIGcgPAi56U0AQIECBAgQIAAAQIECBAgUCwgvCgGVx0BAgQIECBAgAABAgQIECCQExBe5LyUJkCAAAECBAgQIECAAAECBIoFhBfF4KojQIAAAQIECBAgQIAAAQIEcgLCi5yX0gQIECBAgAABAgQIECBAgECxgPCiGFx1BAgQIECAAAECBAgQIECAQE5AeJHzUpoAAQIECBAgQIAAAQIECBAoFhBeFIOrjgABAgQIECBAgAABAgQIEMgJCC9yXkoTIECAAAECBAgQIECAAAECxQLCi2Jw1REgQIAAAQIECBAgQIAAAQI5AeFFzktpAgQIECBAgAABAgQIECBAoFhAeFEMrjoCBAgQIECAAAECBAgQIEAgJyC8yHkpTYAAAQIECBAgQIAAAQIECBQLCC+KwVVHgAABAgQIECBAgAABAgQI5ASEFzkvpQkQIECAAAECBAgQIECAAIFiAeFFMbjqCBAgQIAAAQIECBAgQIAAgZyA8CLnpTQBAgQIECBAgAABAgQIECBQLCC8KAZXHQECBAgQIECAAAECBAgQIJATEF7kvJQmQIAAAQIECBAgQIAAAQIEigWEF8XgqiNAgAABAgQIECBAgAABAgRyAsKLnJfSBAgQIECAAAECBAgQIECAQLGA8KIYXHUECBAgQIAAAQIECBAgQIBATkB4kfNSmgABAgQIECBAgAABAgQIECgWEF4Ug6uOAAECBAgQIECAAAECBAgQyAkIL3JeShMgQIAAAQIECBAgQIAAAQLFAsKLYnDVESBAgAABAgQIECBAgAABAjkB4UXOS2kCBAgQIECAAAECBAgQIECgWEB4UQyuOgIECBAgQIAAAQIECBAgQCAnILzIeSlNgAABAgQIECBAgAABAgQIFAsIL4rBVUeAAAECBAgQIECAAAECBAjkBIQXOS+lCRAgQIAAAQIECBAgQIAAgWIB4UUxuOoIECBAgAABAgQIECBAgACBnIDwIuelNAECBAgQIECAAAECBAgQIFAsILwoBlcdAQIECBAgxH6KKwAAIABJREFUQIAAAQIECBAgkBMQXuS8lCZAgAABAgQIECBAgAABAgSKBYQXxeCqI0CAAAECBAgQIECAAAECBHICwoucl9IECBAgQIAAAQIECBAgQIBAsYDwohhcdQQIECBAgAABAgQIECBAgEBOQHiR81KaAAECBAgQIECAAAECBAgQKBYQXhSDq44AAQIECBAgQIAAAQIECBDICQgvcl5KEyBAgAABAgQIECBAgAABAsUCwoticNURIECAAAECBAgQIECAAAECOQHhRc5LaQIECBAgQIAAAQIECBAgQKBYQHhRDK46AgQIECBAgAABAgQIECBAICcgvMh5KU2AAAECBAgQIECAAAECBAgUCwgvisFVR4AAAQIECBAgQIAAAQIECOQEhBc5L6UJECBAgAABAgQIECBAgACBYgHhRTG46ggQIECAAAECBAgQIECAAIGcgPAi56U0AQIECBAgQIAAAQIECBAgUCwgvCgGVx0BAgQIECBAgAABAgQIECCQExBe5LyUJkCAAAECBAgQIECAAAECBIoFhBfF4KojQIAAAQIECBAgQIAAAQIEcgLCi5yX0gQIECBAgAABAgQIECBAgECxgPCiGFx1BAgQIECAAAECBAgQIECAQE5AeJHzUpoAAQIECBAgQIAAAQIECBAoFhBeFIOrjgABAgQIECBAgAABAgQIEMgJCC9yXkoTIECAAAECBAgQIECAAAECxQLCi2Jw1REgQIAAAQIECBAgQIAAAQI5AeFFzktpAgQIECBAgAABAgQIECBAoFhAeFEMrjoCBAgQIECAAAECBAgQIEAgJyC8yHkpTYAAAQIECBAgQIAAAQIECBQLCC+KwVVHgAABAgQIECBAgAABAgQI5ASEFzkvpQkQIECAAAECBAgQIECAAIFiAeFFMbjqCBAgQIAAAQIECBAgQIAAgZyA8CLnpTQBAgQIECBAgAABAgQIECBQLCC8KAZXHQECBAgQIECAAAECBAgQIJATEF7kvJQmQIAAAQIECBAgQIAAAQIEigWEF8XgqiNAgAABAgQIECBAgAABAgRyAsKLnJfSBAgQIECAAAECBAgQIECAQLGA8KIYXHUECBAgQIAAAQIECBAgQIBATkB4kfNSmgABAgQIECBAgAABAgQIECgWEF4Ug6uOAAECBAgQIECAAAECBAgQyAkIL3JeShMgQIAAAQIECBAgQIAAAQLFAsKLYnDVESBAgAABAgQIECBAgAABAjkB4UXOS2kCBAgQIECAAAECBAgQIECgWEB4UQyuOgIECBAgQIAAAQIECBAgQCAnILzIeSlNgAABAgQIECBAgAABAgQIFAsIL4rBVUeAAAECBAgQIECAAAECBAjkBIQXOS+lCRAgQIAAAQIECBAgQIAAgWIB4UUxuOoIECBAgAABAgQIECBAgACBnIDwIuelNAECBAgQIECAAAECBAgQIFAsILwoBlcdAQIECBAgQIAAAQIECBAgkBMQXuS8lCZAgAABAgQIECBAgAABAgSKBYQXxeCqI0CAAAECBAgQIECAAAECBHICwoucl9IECBAgQIAAAQIECBAgQIBAsYDwohhcdQQIECBAgAABAgQIECBAgEBOQHiR81KaAAECBAgQIECAAAECBAgQKBYQXhSDq44AAQIECBAgQIAAAQIECBDICQgvcl5KEyBAgAABAgQIECBAgAABAsUCwoticNURIECAAAECBAgQIECAAAECOQHhRc5LaQIECBAgQIAAAQIECBAgQKBYQHhRDK46AgQIECBAgAABAgQIECBAICcgvMh5KU2AAAECBAgQIECAAAECBAgUCwgvisFVR4AAAQIECBAgQIAAAQIECOQEhBc5L6UJECBAgAABAgQIECBAgACBYgHhRTG46ggQIECAAAECBAgQIECAAIGcgPAi56U0AQIECBAgQIAAAQIECBAgUCwgvCgGVx0BAgQIECBAgAABAgQIECCQExBe5LyUJkCAAAECBAgQIECAAAECBIoFhBfF4KojQIAAAQIECBAgQIAAAQIEcgLCi5yX0gQIECBAgAABAgQIECBAgECxgPCiGFx1BAgQIECAAAECBAgQIECAQE5AeJHzUpoAAQIECBAgQIAAAQIECBAoFhBeFIOrjgABAgQIECBAgAABAgQIEMgJCC9yXkoTIECAAAECBAgQIECAAAECxQLCi2Jw1REgQIAAAQIECBAgQIAAAQI5AeFFzktpAgQIECBAgAABAgQIECBAoFhAeFEMrjoCBAgQIECAAAECBAgQIEAgJyC8yHkpTYAAAQIECBAgQIAAAQIECBQLCC+KwVVHgAABAgQIECBAgAABAgQI5ASEFzkvpQkQIECAAAECBAgQIECAAIFiAeFFMbjqCBAgQIAAAQIECBAgQIAAgZyA8CLnpTQBAgQIECBAgAABAgQIECBQLCC8KAZXHQECBAgQIECAAAECBAgQIJATEF7kvJQmQIAAAQIECBAgQIAAAQIEigWEF8XgqiNAgAABAgQIECBAgAABAgRyAsKLnJfSBAgQIECAAAECBAgQIECAQLGA8KIYXHUECBAgQIAAAQIECBAgQIBATkB4kfNSmgABAgQIECBAgAABAgQIECgWEF4Ug6uOAAECBAgQIECAAAECBAgQyAkIL3JeShMgQIAAAQIECBAgQIAAAQLFAsKLYnDVESBAgAABAgQIECBAgAABAjkB4UXOS2kCBAgQIECAAAECBAgQIECgWEB4UQyuOgIECBAgQIAAAQIECBAgQCAnILzIeSlNgAABAgQIECBAgAABAgQIFAsIL4rBVUeAAAECBAgQIECAAAECBAjkBIQXOS+lCRAgQIAAAQIECBAgQIAAgWIB4UUxuOoIECBAgAABAgQIECBAgACBnIDwIuelNAECBAgQIECAAAECBAgQIFAsILwoBlcdAQIECBAgQIAAAQIECBAgkBMQXuS8lCZAgAABAgQIECBAgAABAgSKBYQXxeCqI0CAAAECBAgQIECAAAECBHICwoucl9IECBAgQIAAAQL/r707AZbtKOgGfr6STdkRMIEgkFgKCIUaIpsoCAlboRSLoKwiQkAIoGyyxLCoCVvYCYiARhbZDCA7KCp7CEuEIMqmrMUOLuBC5av/+ez7nTeZuXf6zrv9eub+pop65L2e6T6/PjPn9P/06UOAAAECBAg0FhBeNAZXHQECBAgQIECAAAECBAgQIFAnILyo81KaAAECBAgQIECAAAECBAgQaCwgvGgMrjoCBAgQIECAAAECBAgQIECgTkB4UeelNAECBAgQIECAAAECBAgQINBYQHjRGFx1BAgQIECAAAECBAgQIECAQJ2A8KLOS2kCBAgQIECAAAECBAgQIECgsYDwojG46ggQIECAAAECBAgQIECAAIE6AeFFnZfSBAgQIECAAAECBAgQIECAQGMB4UVjcNURIECAAAECBAgQIECAAAECdQLCizovpQkQIECAAAECBAgQIECAAIHGAsKLxuCqI0CAAAECBAgQIECAAAECBOoEhBd1XkoTIECAAAECBAgQIECAAAECjQWEF43BVUeAAAECBAgQIECAAAECBAjUCQgv6ryUJkCAAAECBAgQIECAAAECBBoLCC8ag6uOAAECBAgQIECAAAECBAgQqBMQXtR5KU2AAAECBAgQIECAAAECBAg0FhBeNAZXHQECBAgQIECAAAECBAgQIFAnILyo81KaAAECBAgQIECAAAECBAgQaCwgvGgMrjoCBAgQIECAAAECBAgQIECgTkB4UeelNAECBAgQIECAAAECBAgQINBYQHjRGFx1BAgQIECAAAECBAgQIECAQJ2A8KLOS2kCBAgQIECAAAECBAgQIECgsYDwojG46ggQIECAAAECBAgQIECAAIE6AeFFnZfSBAgQIECAAAECBAgQIECAQGMB4UVjcNURIECAAAECBAgQIECAAAECdQLCizovpQkQIECAAAECBAgQIECAAIHGAsKLxuCqI0CAAAECBAgQIECAAAECBOoEhBd1XkoTIECAAAECBAgQIECAAAECjQWEF43BVUeAAAECBAgQIECAAAECBAjUCQgv6ryUJkCAAAECBAgQIECAAAECBBoLCC8ag6uOAAECBAgQIECAAAECBAgQqBMQXtR5KU2AAAECBAgQIECAAAECBAg0FhBeNAZXHQECBAgQIECAAAECBAgQIFAnILyo81KaAAECBAgQIECAAAECBAgQaCwgvGgMrjoCBAgQIECAAAECBAgQIECgTkB4UeelNAECBAgQIECAAAECBAgQINBYQHjRGFx1BAgQIECAAAECBAgQIECAQJ2A8KLOS2kCBAgQIECAAAECBAgQIECgsYDwojG46ggQIECAAAECBAgQIECAAIE6AeFFnZfSBAgQIECAAAECBAgQIECAQGMB4UVjcNURIECAAAECBAgQIECAAAECdQLCizovpQkQIECAAAECBAgQIECAAIHGAsKLxuCqI0CAAAECBAgQIECAAAECBOoEhBd1XkoTIECAAAECBAgQIECAAAECjQWEF43BVUeAAAECBAgQIECAAAECBAjUCQgv6ryUJkCAAAECBAgQIECAAAECBBoLCC8ag6uOAAECBAgQIECAAAECBAgQqBMQXtR5KU2AAAECBAgQIECAAAECBAg0FhBeNAZXHQECBAgQIECAAAECBAgQIFAnILyo81KaAAECBAgQIECAAAECBAgQaCwgvGgMrjoCBAgQIECAAAECBAgQIECgTkB4UeelNAECBAgQIECAAAECBAgQINBYQHjRGFx1BAgQIECAAAECBAgQIECAQJ2A8KLOS2kCBAgQIECAAAECBAgQIECgsYDwojG46ggQIECAAAECBAgQIECAAIE6AeFFnZfSBAgQIECAAAECBAgQIECAQGMB4UVjcNURIECAAAECBAgQIECAAAECdQLCizovpQkQIECAAAECBAgQIECAAIHGAsKLxuCqI0CAAAECBAgQIECAAAECBOoEhBd1XkoTIECAAAECBAgQIECAAAECjQWEF43BVUeAAAECBAgQIECAAAECBAjUCQgv6ryUJkCAAAECBAgQIECAAAECBBoLCC8ag6uOAAECBAgQIECAAAECBAgQqBMQXtR5KU2AAAECBAgQIECAAAECBAg0FhBeNAZXHQECBAgQIECAAAECBAgQIFAnILyo81KaAAECBAgQIECAAAECBAgQaCwgvGgMrjoCBAgQIECAAAECBAgQIECgTkB4UeelNAECBAgQIECAAAECBAgQINBYQHjRGFx1BAgQIECAAAECBAgQIECAQJ2A8KLOS2kCBAgQIECAAAECBAgQIECgsYDwojG46ggQIECAAAECBAgQIECAAIE6AeFFnZfSBAgQIECAAAECBAgQIECAQGMB4UVjcNURIECAAAECBAgQIECAAAECdQLCizovpQkQIECAAAECBAgQIECAAIHGAsKLxuCqI0CAAAECBAgQIECAAAECBOoEhBd1XkoTIECAAAECBAgQIECAAAECjQWEF43BVUeAAAECBAgQIECAAAECBAjUCQgv6ryUJkCAAAECBAgQIECAAAECBBoLCC8ag6uOAAECBAgQIECAAAECBAgQqBMQXtR5KU2AAAECBAgQIECAAAECBAg0FhBeNAZXHQECBAgQIECAAAECBAgQIFAnILyo81KaAAECBAgQIECAAAECBAgQaCwgvGgMrjoCBAgQIECAAAECBAgQIECgTkB4UeelNAECBAgQIECAAAECBAgQINBYQHjRGFx1BAgQIECAAAECBAgQIECAQJ2A8KLOS2kCBAgQIECAAAECBAgQIECgsYDwojG46ggQIECAAAECBAgQIECAAIE6AeFFnZfSBAgQIECAAAECBAgQIECAQGMB4UVjcNURIECAAAECBAgQIECAAAECdQLCizovpQkQIECAAAECBAgQIECAAIHGAsKLxuCqI0CAAAECBAgQIECAAAECBOoEhBd1XkoTIECAAAECBAgQIECAAAECjQWEF43BVUeAAAECBAgQIECAAAECBAjUCQgv6ryUJkCAAAECBAgQIECAAAECBBoLCC8ag6uOAAECBAgQIECAAAECBAgQqBMQXtR5KU2AAAECBAgQIECAAAECBAg0FhBeNAZXHQECBAgQIECAAAECBAgQIFAnILyo81KaAAECBAgQIECAAAECBAgQaCwgvGgMrjoCBAgQIECAAAECBAgQIECgTkB4UeelNAECBAgQIECAAAECBAgQINBYQHjRGFx1BAgQIECAAAECBAgQIECAQJ2A8KLOS2kCBAgQIECAAAECBAgQIECgsYDwojG46ggQIECAAAECBAgQIECAAIE6AeFFnZfSBAgQIECAAAECBAgQIECAQGMB4UVjcNURIECAAAECBAgQIECAAAECdQLCizovpQkQIECAAAECBAgQIECAAIHGAsKLxuCqI0CAAAECBAgQIECAAAECBOoEhBd1XkoTIECAAAECBAgQIECAAAECjQWEF43BVUeAAAECBAgQIECAAAECBAjUCQgv6ryUJkCAAAECBAgQIECAAAECBBoLCC8ag6uOAAECBAgQIECAAAECBAgQqBMQXtR5KU2AAAECBAgQIECAAAECBAg0FhBeNAZXHQECBAgQIECAAAECBAgQIFAnILyo81KaAAECBAgQIECAAAECBAgQaCwgvGgMrjoCBAgQIECAAAECBAgQIECgTkB4UeelNAECBAgQIECAAAECBAgQINBYQHjRGFx1BAgQIECAAAECBAgQIECAQJ2A8KLOS2kCBAgQIECAAAECBAgQIECgsYDwojG46ggQIECAAAECBAgQIECAAIE6AeFFnZfSBAgQIECAAAECBAgQIECAQGMB4UVjcNURIECAAAECBAgQIECAAAECdQLCizovpQkQIECAAAECBAgQIECAAIHGAsKLxuCqI0CAAAECBAgQIECAAAECBOoEhBd1XkoTIECAAAECBAgQIECAAAECjQWEF43BVUeAAAECBAgQIECAAAECBAjUCQgv6ryUJkCAAAECBAgQIECAAAECBBoLCC8ag6uOAAECBAgQIECAAAECBAgQqBMQXtR5KU2AAAECBAgQIECAAAECBAg0FhBeNAZXHQECBAgQIECAAAECBAgQIFAnILyo81KaAAECBAgQIECAAAECBAgQaCwgvGgMrjoCBAgQIECAAAECBAgQIECgTkB4UeelNAECBAgQIECAAAECBAgQINBYQHjRGFx1BAgQIECAAAECBAgQIECAQJ2A8KLOS2kCBAgQIECAAAECBAgQIECgsYDwojG46ggQIECAAAECBAgQIECAAIE6AeFFnZfSBAgQIECAAAECBAgQIECAQGMB4UVjcNURIECAAAECBAgQIECAAAECdQLCizovpQkQIECAAAECBAgQIECAAIHGAsKLxuCqI0CAAAECBAgQIECAAAECBOoEhBd1XkoTIECAAAECBAgQIECAAAECjQWEF43BVUeAAAECBAgQIECAAAECBAjUCQgv6ryUJkCAAAECBAgQIECAAAECBBoLCC8ag6uOAAECBAgQIECAAAECBAgQqBMQXtR5KU2AAAECBAgQIECAAAECBAg0FhBeNAZXHQECBAgQIECAAAECBAgQIFAnILyo81KaAAECBAgQIECAAAECBAgQaCwgvGgMrjoCBAgQIECAAAECBAgQIECgTkB4UeelNAECBAgQIECAAAECBAgQINBYQHjRGFx1BAgQIECAAAECBAgQIECAQJ2A8KLOS2kCBAgQIECAAAECBAgQIECgsYDwojG46ggQIECAAAECBAgQIECAAIE6AeFFnZfSBAgQIECAAAECBAgQIECAQGMB4UVjcNURIECAAAECBAgQIECAAAECdQLCizovpQkQIECAAAECBAgQIECAAIHGAsKLxuCqI0CAAAECBAgQIECAAAECBOoEhBd1XkoTIECAAAECBAgQIECAAAECjQWEF43BVUeAAAECBAgQIECAAAECBAjUCQgv6ryUJkCAAAECBAgQIECAAAECBBoLCC8ag6uOAAECBAgQIECAAAECBAgQqBMQXtR5KU2AAAECBAgQIECAAAECBAg0FhBeNAZXHQECBAgQIECAAAECBAgQIFAnILyo81KaAAECBAgQIECAAAECBAgQaCwgvGgMrjoCBAgQIECAAAECBAgQIECgTkB4UeelNAECBAgQIECAAAECBAgQINBYQHjRGFx1BAgQIECAAAECBAgQIECAQJ2A8KLOS2kCBAgQIECAAAECBAgQIECgsYDwojG46ggQIECAAAECBAgQIECAAIE6AeFFnZfSBAgQIECAAAECBAgQIECAQGMB4UVjcNURIECAAAECBAgQIECAAAECdQLCizovpQkQIECAAAECBAgQIECAAIHGAsKLxuCqI0CAAAECBAgQIECAAAECBOoEhBd1XkoTIECAAAECBAgQIECAAAECjQWEF43BVUeAAAECBAgQIECAAAECBAjUCQgv6ryUJkCAAAECBAgQIECAAAECBBoLCC8ag6uOAAECBAgQIECAAAECBAgQqBMQXtR5KU2AAAECBAgQIECAAAECBAg0FhBeNAZXHQECBAgQIECAAAECBAgQIFAnILyo81KaAAECBAgQIECAAAECBAgQaCwgvGgMrjoCBAgQIECAAAECBAgQIECgTkB4UeelNAECBAgQIECAAAECBAgQINBYQHjRGFx1BAgQIECAAAECBAgQIECAQJ2A8KLOS2kCBAgQIECAAAECBAgQIECgsYDwojG46ggQIECAAAECBAgQIECAAIE6AeFFnZfSBAgQIECAAAECBAgQIECAQGMB4UVjcNURIECAAAECBAgQIECAAAECdQLCizovpQkQIECAAAECBAgQIECAAIHGAsKLxuCqI0CAAAECBAgQIECAAAECBOoEhBd1XkoTIECAAAECBAgQIECAAAECjQWEF43BVUeAAAECBAgQIECAAAECBAjUCQgv6ryUJkCAAAECBAgQIECAAAECBBoLCC8ag6uOAAECBAgQIECAAAECBAgQqBMQXtR5KU2AAAECBAgQIECAAAECBAg0FhBeNAZXHQECBAgQIECAAAECBAgQIFAnILyo81KaAAECBAgQIECAAAECBAgQaCwgvGgMrjoCBAgQIECAAAECBAgQIECgTkB4UeelNAECBAgQIECAAAECBAgQINBYQHjRGFx1BAgQIECAAAECBAgQIECAQJ2A8KLOS2kCBAgQIECAAAECBAgQIECgsYDwojG46ggQIECAAAECBAgQIECAAIE6AeFFnZfSBAgQIECAAAECBAgQIECAQGMB4UVjcNURIECAAAECBAgQIECAAAECdQLCizovpQkQIECAAAECBAgQIECAAIHGAsKLxuCqI0CAAAECBAgQIECAAAECBOoEhBd1XkoTIECAAAECBAgQIECAAAECjQWEF43BVUeAAAECBAgQIECAAAECBAjUCQgv6ryUJkCAAAECBAgQIECAAAECBBoLCC8ag6uOAAECBAgQIECAAAECBAgQqBMQXtR5KU2AAAECBAgQIECAAAECBAg0FhBeNAZXHQECBAgQIECAAAECBAgQIFAnILyo81KaAAECBAgQIECAAAECBAgQaCwgvGgMrjoCBAgQIECAAAECBAgQIECgTkB4UeelNAECBAgQIECAAAECBAgQINBYQHjRGFx1BAgQIECAAAECBAgQIECAQJ2A8KLOS2kCBAgQIECAAAECBAgQIECgsYDwojG46ggQIECAAAECBAgQIECAAIE6AeFFnZfSBAgQIECAAAECBAgQIECAQGMB4UVjcNURIECAAAECBAgQIECAAAECdQLCizovpQkQIECAAAECBAgQIECAAIHGAsKLxuCqI0CAAAECBAgQIECAAAECBOoEtsKLurcpTYAAAQIECBAgQIAAAQIECBBoJ/B/hmE4N9Wde+74hxcBAmsmkBTS93fNOk1zCRAgQIAAgeYCzpmak6uQwEETOGDmhcHPQXP1QQSaCjgQN+VWGQECBAgQILCmAs6Z1rTjNJvAMAzCC7sBgQ0QcCDegE60CQQIECBAgMCeCzhn2nNiFRDYMwHhxZ7R+mAC7QQciNtZq4kAAQIECBBYXwHnTOvbd1pOQHhhHyCwAQIOxBvQiTaBAAECBAgQ2HMB50x7TqwCAnsmILzYM1ofTKCdgANxO2s1ESBAgAABAusr4JxpfftOywkIL+wDBDZAwIF4AzrRJhAgQIAAAQJ7LuCcac+JVUBgzwSEF3tG64MJtBNwIG5nrSYCBAgQIEBgfQWcM61v32k5AeGFfYDABgg4EG9AJ9oEAgQIECBAYM8FnDPtObEKCOyZwFLhxec+97nhtre97XD00UcPz3nOcw5ozBOf+MTh3e9+9/CiF71ouPjFLz7+27e//e3h7ne/+3DGGWdslT3++OMPeG/5zDPPPPOAzzvqqKOG008/fbjuda+78LOmb3jVq1413OY2t9kzIB9MYB0EljkQ3+c+9xlOO+20uZtTvndf+tKXhpNPPnnI9+rzn//8cJe73GX41Kc+Nfc9+U6nbL7rKTfve7joe54PnP2ur4OzNhIgQIAAAQLrLTDvnCnjmec+97kHjEGyleU85uEPf/h4npNyn/70p88zHppX7hWveMV4PnWFK1zhPGD5nPLvF7vYxc4zbipvmI5zXv3qV4/jsXmvW9/61uNY7Dvf+c5YZnZ8lffMjsXWuxe1fr8KVIUX+SLMhgWz4cV73vOecSBz7LHHHvDFzsDprLPO2voS50t+j3vcY3jsYx+7FVSkE/LFfOhDH7r141GCkEWDo/3acbabwFRgmfBiWj7fs4SE09CxfP9KeDE92C76Hu70/Vz0Pdd7BAgQIECAAIFDIbAovMj4o4QA5YLsKuHFy1/+8uEqV7nK8MxnPnPrAm8pA3BIAAAgAElEQVQ510rAcMwxx4zjohJezI51ZsdEi87dpoaLzrvKdtz+9rcfHvKQhxwKdnUSOCgCS4cXCRoOO+yw4ROf+MQBKeI0vEiLchX2ete73twvRgKMvDJ7Y7tBzbzP3Cm8mDcD5KAI+RACayCwzuFFCUAW/W6sAb8mEiBAgAABAmsisCi8yEzyL3zhC8N0gL9KeJHPy9jprne96wEXast4qFzUXRRezI6VVgkv0jXGSmuyg2rmtgJV4UWSugQP+SKW20emX4RzzjlnOOGEE4anP/3pB3xJSwsyK+PEE08cXvCCF4x/NW/mRf5+Wm7RF1q/EiDw/wXWObzQjwQIECBAgACBVgKLwovcDpKZ49MZ4KuGF7nV5Mtf/vLWRd18XsZKxx133PDCF75wx5kXb33rW7fGXMKLVnuIenoWqAovcotHXpkF8YQnPGHr3q+y5sXb3/72rfvl593fNU0QjzjiiIXhxbTc1a52tYX3gZXpVvPq6hld2wgcbIGew4tF917OTs082CY+jwABAgQIECAwK7BdeJGLs5kZkcBhuobEbta8yPjo8Y9//HjbSG7Jza0oCSASSCQkKbfpbrfmxfRcabs1LzIuy0Vmt43Y3zddoDq8yEKa00VmXvayl20t2LmX4cVOt41sekfZPgLbCfQcXiyaYaVHCRAgQIAAAQKtBXYKL6brQ9zxjnccF8DcbXiRAORxj3vc+BkZQyUYSXCR12x4MTvWKesIlgvGy868WHTRqAQcrb3VR+BgCuwqvCj3qOf2kSOPPHIrvHDbyMHsGp9FYHkB4cXyVkoSIECAAAEC+1dgp/AiMmWxzAz4EzKsEl7k4m5mWzziEY/Yur0+D0HYKbxIO6brBS4bXsxeNJp9aML+7XlbvgkCuwovsuElDbzSla40XPSiFx2nVuV1qBbs3ITOsA0EdisgvNitnPcRIECAAAEC+0lgmfCiBAcf+MAHhm9+85tbt8svChAyLpqu+zddEzCPLy3rXJx99tnjGhb5nGXDi1wozi0huw0vykXnbNPsU+b2U7/b1s0Q2HV4kc3PF3P2sUIelboZO4atWC8B4cV69ZfWEiBAgAABAodGYNnwotw+klkSeaRpFt9c9MjR6ToZWdti9ske+ffTTjtt63OWCS9mA5HdhhdRXjQ+OzQ9oFYCuxdYKbxYlOSVvz/jjDO2Wnb88cdvrZabv5z+IEybP7sI57zPmpYvn+vxP7vfCbxz/QUOdXgx/a4XzRzo831edO9lymU65r3uda9tZ2ytf+/YAgIECBAgQKAXgWXDi7S3LJJZwov83TLjnNlxyTSsyIMG5oUXi86lEppM2zLP8aijjhpOP/30YbsHIpRtsfZFL3uiduxGYKnwYjcf7D0ECLQTqA0v2rVMTQQIECBAgACBfgScM/XTF1pCoFZAeFErpjyBDgUciDvsFE0iQIAAAQIEuhNwztRdl2gQgaUFhBdLUylIoF8BB+J++0bLCBAgQIAAgX4EnDP10xdaQqBWQHhRK6Y8gQ4FHIg77BRNIkCAAAECBLoTcM7UXZdoEIGlBYQXS1MpSKBfAQfifvtGywgQIECAAIF+BJwz9dMXWkKgVkB4USumPIEOBRyIO+wUTSJAgAABAgS6E3DO1F2XaBCBpQWEF0tTKUigXwEH4n77RssIECBAgACBfgScM/XTF1pCoFZAeFErpjyBDgUciDvsFE0iQIAAAQIEuhNwztRdl2gQgaUFhBdLUylIoF8BB+J++0bLCBAgQIAAgX4EnDP10xdaQqBWQHhRK6Y8gQ4FHIg77BRNIkCAAAECBLoTcM7UXZdoEIGlBYQXS1MpSKBfAQfifvtGywgQIECAAIF+BJwz9dMXWkKgVkB4USumPIEOBRyIO+wUTSJAgAABAgS6E3DO1F2XaBCBpQWEF0tTKUigXwEH4n77RssIECBAgACBfgScM/XTF1pCoFZAeFErpjyBDgUciDvsFE0iQIAAAQIEuhNwztRdl2gQgaUFhBdLUylIoF8BB+J++0bLCBAgQIAAgX4EnDP10xdaQqBWQHhRK6Y8gQ4FHIg77BRNIkCAAAECBLoTcM7UXZdoEIGlBYQXS1MpSKBfAQfifvtGywgQIECAAIF+BJwz9dMXWkKgVkB4USumPIEOBRyIO+wUTSJAgAABAgS6E3DO1F2XaBCBpQWEF0tTKUigXwEH4n77RssIECBAgACBfgScM/XTF1pCoFZAeFErpjyBDgUciDvsFE0iQIAAAQIEuhNwztRdl2gQgaUFhBdLUylIoF8BB+J++0bLCBDoQ+D73//+8Dd/8zfDv/3bvw03vvGNhwtf+MJ9NEwrCBBoKuCcqSm3yggcVAHhxUHl9GEEDo2AA/GhcT/Utb7nPe8Z7nKXuwzXuMY1hhe96EXDxS9+8UPdpI2o/3Of+9xw29vedvjGN74xnH766cM73/nO4aEPfehw61vfesv5iU984vh3xx9//PCc5zzngO3+zne+M/zBH/zB8JKXvGTIZz3hCU8YHvKQh2yEzTpsxL//+78Pr371q4eXvvSlw4c+9KHhy1/+8gHNnvbjOmyPNh58gen39xGPeMT4fT/zzDOHV73qVcNtbnObg1+hT+xKwDlTV92hMQSqBIQXVVwKE+hTwIG4z37Z61YJL/ZGeJXwIgPne9/73sOLX/zi4XrXu97w0z/908Nxxx03/NIv/dLeNNanHiDw+c9/frjf/e43vOY1rzmPTMK9n/3Znx2DpGOPPZbcPhYQXuzjzh+GwTnT/u5/W7/eAsKL9e6/rdZ/8IMfHO50pzsN//AP/zA84xnPGE/eln3l6uI97nGP4Ytf/OJ41eEKV7jCsm9VrhMBB+JOOqJBM/7xH/9xeO5znzu84x3vGPL/MwU+r8MOO2y42tWuNtzylrccfv3Xf3245CUv2aA1m1nFbHjx3ve+d/jt3/7tpWZevO51rxt/T3/hF35heN7znjdc6lKX2kykDrfq3HPPHR7+8IcPz372s4ff/M3fHB74wAeOx7P8PnoRmApMw4tHPepRw+1vf/shYbCZF/tjP3HOtD/62VZupoDwYkP6NQfiTE3+wR/8wXEKeaY6L3PSnJO9xzzmMeP/jjnmGOHFmu4PDsRr2nEVzf7P//zP4clPfvL4Pc+9+wkqrnzlKw9vf/vbx+Di6le/+vCBD3xg+OQnPzn8xE/8xFjO1f4K4EnRb33rW8Pd7na34VOf+tQ4g+Kf//mfx3D4zne+89YtIvNuGymzLt785jcPL3jBC4Zb3epWu2uAd+1KIGHer/3arw3Xvva1h6c85SnDBS94wV19jjdtvsDLX/7y4Q53uMPw4Ac/eDjxxBPHwPfDH/7weO503eted/MB9vkWOmfa5zuAzV9rAeHFWnff/2t8Zk7kvvf//u//Hq8y5cT5T//0T4df/MVf3HHr3vCGNwy/8Ru/Md4TLLzYkavbAg7E3XbNQWlYQsYEFwkZr3KVq4z//wY3uMGQGQHTNS8ucpGLjOsspFwG0n/8x3883OIWtxjKzKyEHFkHIH9OX1/4whfGQV9eef+//Mu/jJ+bqfWz6zmUWQkpW2Zqlb+7/OUvv7UmRMKW3//93x/+6I/+aLjOda4z/n1mImSdiHlrQJRbYGbrvM997jO89a1vPc+gIp+ff3vhC194wLoTsUqg89SnPnVcq+Lb3/72efpgpzUo8hlZy+Lv//7vh1e84hXjrLQEF/e85z231q6YF15kMci73vWuY5C0KEBOvyTY+LM/+7PhnHPOGX7gB35g+Jmf+ZlxpsCv/MqvjP9dXou2Pf9e6i/bkrKnnXbatvtbWZ8j783snewf2cb0S/7MvpV7/3/nd35n7sydDO7y3r/7u78b1/L4sR/7seHmN7/58KAHPWgM0qavZdozvcpdtmeVK99vfOMbx1kvz3zmM8fwPt+T7AMJ+3L7Tto0a5w2p08ymM2+lDUy0ge5vSQOueVnOnMjZfOdiF1mOuaY+6u/+qvjjI/Z2U6f+cxnhlNPPXVIuxIqpmy+t7lt5ad+6qdW8sqbS3+8//3vHz8/3/+EmtlX4zC7IOm8fW/edtbsd2UjYhzDfN/ze1MC1kVtmbZ/uj9lvYlimXVLsj9u9yrnLbldaNFvVn4P4nH+859/63fkXe961/hdzSzV7L/3v//9h/e9730u4ByUI1b/H+Kcqf8+0kICiwSEFxuwb5Rpyne/+92Hn//5nx8P0rlqmJPB7abLlhPyXJ36n//5n/Ek320j67lDOBCvZ78t2+oysE/5DLAyAMpr0ZoXf/InfzKelOf3IIPoC13oQuPAOyFAgs0MOKev8hty3/vedww+FgUJec+y4UUJRo8++ujhhje84ZDPftaznnXQwotp8DpdNDO/Ydn27373u8ONbnSj4Ud/9Ee3NjWDzbe85S1LLaB58sknjzNZ4p0FODOtPFdpy2J+s+FFwpTcWpJbFhbdujddjyEz5K5//esP//Vf/zXeAvTpT396OOGEE8a2lRkDNYPIDBo/+tGPjtv6ve99b3jTm940/v+b3exmY//nlVAlIUnanqAja3K8/vWvH651rWsNP/7jPz5kEJxFC+OWQCPhRF4Jc+LwyEc+8gDXj3/84+O+csQRR4yD1p/7uZ/bsi7hRdwOP/zwA/a30g8HO7zIvv3Yxz52vKKegOgSl7jEuI15xfgrX/nK+D1I3xbjhP/p12zfkUceOe6r0/K/93u/N4YY+Y1NHyd8e/rTnz6G/dm3zz777OHd7373uH/EoCyam8Ai+0P6PFfyr3rVq46h4F//9V+PMyQTrqWd5RWvV77yleN3czYESb8kqJx6/fmf//l4W0xeN7nJTcawJtuSAC3f0fzbKaecMlzgAhcYy+Tf7nWve42fkZAqLtn33va2t423nk23s2a/y2fn+5FAJvtMMUy9CQgSiiWAmL2FqrQ/39OEm9nXEhzFMvtR+iNtzsyn8ioO033qYhe72LitmXUzL7yYrkFz1FFHbYUXn/3sZ8cgK7eMZIZaQqa//du/tfDxsgelNS/nnGnNO1Dz97WA8GLNuz8nlTlpyGAlJ2s5ocpVoH/9138dr6DmhHTeKyctD3vYw8YT3JxoZ1CRq6/Ci/XcIRyI17Pflm11TqwzEEpAmSvmZUCyKLzIbQ45Mf/a1742hhUZJOfPhJoZiE2DzfyGZLD/l3/5l2OZrNWwaniRwdlv/dZvjQOK/A5lRkZes7MFpttfM/OirNNTFmUs4cV//Md/bIU0T3va07Zmk5R6tqt/2b6Y/azUnSv8sUvwk0FqZlVc7nKXO+Ajy29uBq3xzgC6XBkvoUauECe8yOAxr9pBZKlwXsA0bUxxyAyczI7JlPn8hmSgl6vembmQQXramL/PFense3kl9Mg+ktc01Jjd7hJezJtJMW+WxcGYeVE+I22bHTB/9atfHWfTlPCqGJf3/PIv//K43Qli8spMhrjkzzKDqcysyeyGHHMve9nLjqF/AqGEFRloZyCcgXG+a9n/s2/kmFwuJJRQ43znO9+4z2RGyE59PWtZZkoljJkNjf7pn/5prDuhwMte9rLxFrK8Hve4x423RyTAyDZn0J9XZqak/QlzEnQmVKvd73KLTsKPzFLJ/nGZy1xm/OxpqDHdn8rtPdnf8t4Spk7DoeyHf/iHf3jAd2i7fWrR70d+fx7wgAeMv4XT8KL2+678Zgk4Z9qs/rQ1+0tAeLHm/V1OAi560YtuTQcvJynbLdyZqx4ZxGRAlNtGcmIqvFjfncGBeH37bpmWl5P2nMznpL68FoUXGVDlO33GGWdsXa0tvxUZME8DhRJ0ZLBdHre6aniR2yFyFTSDqEc/+tFb7T1Y4UWm7WfQfbvb3W5ISFHCi/yG5apsgoJcxb7Sla50AO9ehBfTCtKehA+zt1CkzEc+8pFx3YzMBsigNVeop68yMC4hwKUvfenqQWT5vGXDi8xCSHBdwrC8v+wnuXUitwFc8YpXHAPyJz3pSXNnrMQ6QdXzn//8cUCfqfhlMJ6B7KEILzKzIEFCbseZZ1xu68kAP7dLJWwowd20fJmRlEerxinhRoKMBP9lO6fbmoF4bkHIduc7m5Aq4cXUdxokJExI4FU+Y97tUfMsE8CkDZk9kTZNZ1iW735mPJT1G3JbaAKUr3/962OgkfBl+jrppJPGR8smgEjoUxNelM/OPjdvvYiyP+U2khKmFJ/M5Mn5yrT9n/jEJ8bZowka8t2ezkKpDS/K7NIENenrrGFjTYtljjibX8Y50+b3sS3cXAHhxZr3bTkJyFTZMkjY6b7rckUpJ6W5iptbRoQX670jOBCvd//t1PoyeMz09gzAdwovyoKTf/VXf7V1NbgMMhNoTBeTzOAy3/8EI+UpRauEFwlNH//4x49TxqdXltPmgxFe5PaKDBwzq+ymN73pcMc73nErvMiMs+0W3tuL8CJtSEiS21hypTmG+S2eXSzyta997RheZLCc3+3ZW/pKn+WWiszcyCy6mkHkdB9aNrxIiJ0ZOtNX9pM86rXcYpR2xDRT+sssntn9tSx+mG1P/x/q8CID8Nx2kFB/+srV96zBkLUoYpz9JftSbv9I8JJgafpKqJFAKuFD1j4pM4hKmcw8yW0gCW8y66cEIFk/IaHCPN+8t6y3kFkXpZ3b9fV2g/aEFZm5k7Aia2Dk1oqsOZHwqwzUy/c562zMc5ntz5r9LrcZxTSB0TzDsn5MAtMyMyWfH//y3zv9/pV/rw0v8n1PP+Q2nwSz00Bn2TqV20wB50yb2a+2an8ICC/WuJ8z5TJXKHIv7PSqUfn7DFxmV7wv0zLzb2VgUa7UmHmxvjuDA/H69t0yLc+Jfk7cyxoW5UlCi2ZelAU6s9bBdOp4CSoyOM2JfRb5zcAraztMy5XPzZXKRa/pAr9lsJyBTF65fz1X4svtBeUzVg0vcm98Zp4kCMhgJL9ZGahO17yY3gaQECUzGcoimHsRXpS6y/T7DCSn6weUbS9B8+zsmfLvs6FBFlxeZtHLeYuPLhNepD2LwojpIDFX98utiPNms6T9OZ4kBMhiq+W2pt3eNjLd37IAZUKq3I6QNVN2eoz3vEVUp583OyvhS1/60rj/ZM2PrEsxGygl2M86CLlqP3vFfnqLSmYH5L9zPE7ZzGjJrTaLfDO7IKHbj/zIj4yD+J1m2cyzzPom+S7kYkV5XHK88t1LKJNXaXNZ+HL6Pdnud6dmv8ttMOn7rAUzL5RLPfk+5AJLwo3cnpOwdDdBQk14kbAt7cp6IJnhkVtjdlPnMr/PyqyfgHOm9eszLSZQBIQXa7wvlBkWmRpbpnuXzcnVhlz9mZ0WnKsfuV0k01XLPb/CizXeCf636Q7E69+H221Bmf6ccGA6MJ4XXkzvG59dtG/2qSIJOjMTIFeAp7cPlM/Nvet5GsH0VRaDzMBr9mkjWQMgV2EzVT7BSa7ylkUf8xmrhhf5jNyOkjri8Bd/8RfnCS8y++F3f/d3x4FjGdTN2u70tJFl9qZ5A+Vyf/0P/dAPjcHxjW98462PWja8yGC5DHq3W8Rxu8VHlwkvEjIsmkK/2/Dilre85dYAdrfhxXQxxgQ6CeJyG1Jmt5R1nRb1T5kBsmiQvii82Km/562VkAAta5SURTgTrKR9P/mTP7l0eJHFZMtshZqZF2Vgnn5OaJBwJwFMbv1KIDkbDuwmvFi0eOjsflcTXmQmSmYq7XV4kdtNcp6TGS6Z3RGX3da5077h39dTwDnTevabVhOIgPBijfeDcjVju02Y3vubleEzbTlTR3PPeJnWLLxY451AeLH+nbfkFkyv7Od7nCn6udUgJ+VZZC/f6Y997GPj2gRZiDeL4GWAOnu1OregJOzMQCvf/TzhIov+TR9JuMptI/nsDBqylk6eijJ9AsMq4UXWGshAL7NB8mcGs9sNyjK4zEJ9CVvK0xhqnjayU7fMCy+mj2/NFeYYl1kyO902MntLQ4vbRuatR1EWPS0hyjK3jZTFYPfitpHcdpCwKbMMZm+bmu2jMgMkM5Qy8ych0vRV1kRJwJVBbdaAyNX5aeiyU7/P/ntZtDT7Wr6LuW1mp9tGSjszk2g3t42UY/+8NSPmrXkx7zaV7bbzYN42UmYUJQyJ+a1udatxptT0NpJlzZedeZFbfbIwaWaVZV2veSbL1qncZgoILzazX23V/hAQXqxpP5crqLknd/oovOnm5OpMnp9e1sNY5pnpef90Ovia8uy7ZjsQ748unzdVfHbL86jGzLjKwGb2kYspWwZOmbaeKe75zOkCnimzaniRp43kymeCjMwCy8Kdea0SXqS9CTDyBIzyeYvCixL0pM7p0xj28raR0g/lyRy5fWT65JBlF+zMQp4vfelLhzwJpGYQOd0Plpl5kac/zD55Jp8xbxHoZRfsTICWgWleu515MS9Q2W6W4Ww4kZlE3/zmN+cuTFkW4MyjOLNvJvzLmh+ZJTT7HZj9XiXwyGKcWS8jgUPWjCqv2RlQ6b9lFuychjE1My+2sy23jGUGRplZU84XFrkkfMrCmfncDPZr9rtlF+xMiJjw4prXvOb4m5CAZ174khAv3+8s8Jn9abr47TLhRW7/yYyr1Dd9IoyZF/vjGLnsVjpnWlZKOQL9CQgv+uuTpVpU7oHPCf3savHlA8qJWlYWz4lZTmCmz0wv5cp9vTk5SxCSqd+Zbv7DP/zDS7VFoUMv4EB86PugZQuyaOU73vGO8TGH+Z5noJurx1mfIAOzcrV/XpvymNHcepHfgwxwcpWyPPFgdjCWNQwygNhpYFwGy1nQcPaJJZkaXx4dutvwIu8///nPP66hMb1Fbl54UR5TmUHcNDzYKTyp7b9F6ytMZwrkdpz85mbdjWUflZq+yACyBACLnkCxneWy4UVm5k0fVTl9VOr01pplHpWatSnKjJiDGV5kEHvKKaeMA92dZl5M+7iswVAe2zl99GkGz5lplL6Kd/43+/ja/FtCiIQ8uXUqt/3EJLdEZeZDbk3K7MWUy9/lMzKLI5+dJ/js9KjUtDX78rWvfe0d+3p20F5mXmQdkPRfmUVZHgeb78X0VpfttjPfl6wHkdCqrJ1VE16k8cs8KnV6C1uZBZrwdPbRu89+9rPHWTbzzm2WCS/y+xaP3DpSFqM186L2123zyztn2vw+toWbKyC8WMO+LU8NyAJ7GVjk/u/tBimZ/rtdObeNrOFOMNNkB+L178PdbMGiBTt3+qzyOOUEC/MeEbnqzIvM/siAKYOQDPjKQLgMuHOPfgbO01euCuf++ayRkds8SoBaBixp6+w6ErPhxTQgyK01uW0mj4YtrxYzL1JXWaMkT6KYPi4zszHy3695zWvGW32uf/3rj6FGgqgEUpnqnjbm0Y4twousz5A23ehGNxoDsNxekEUN73CHOwwZRJYQrNwakQAhA86UT39kEJp95YgjjtgKQTLTJX/3tre9bcgMnPLklGlfl36YzrIofzdd8yJX0M8666zxMbPZX6aD/UX7eAavGdRnfYXMYrnhDW84Fo3xV77ylXFWUmbvlAH/tHzqSACYdp999tnjE1Yyeym3YmUgnHbkCn6e6pFyCacy6C8G01k+2ZcTQsU3swESYJX1MfL5edRvnuJSFgmtmXlRwqTcBlXakeN4zBMilcBw6pvtzP6Vv5vd9+IyXUunNrzIhY/Mznne8563ZZ4ntJT9KbdQJdTJflJe6Z98x+ftT+WpKNP1cnYKxKaLDMd13q2xFuzc6ciwf/7dOdP+6WtbunkCwos17NMyLTQzJHaa6lpOCLNa/Lx7gLP5wos13AmEF+vfaQdhC3YbXuz0voMRXmTzysKCCTMSkmTglCvZO72mt66V8GIaApT3z4YXZUB0+OGHb814mDdo3qsFO6d1ZVvLo2dzu8stbnGL8Z8zuyEhTAb1WYgyT0LJosu5+p0BcnkySovwIrNCErSkfRkIpx0ZnOepGdPQp2xXBu05puR2xMzuyOAya6vkdooyvb/0V4KD3JaS/559isd24cXsvpE1W7J2SmY6XP3qV99p1znAOGFHjpd5CkdmIKY/clvJ1HhenyQ0ybYlZMttMBnsl1duGzn11FOHPHI4Bgl9EuZkv86ge/oqZRNkZOZH2ZYM9GfL1oQXqSN9cdJJJ42hTI7h6bsc57PWTGZjZeZHFuaezqoq+15xyfcys0oS9iRgWCZIWRQAZoZMFkxNgBPz/HfMc3Flu/0p38WEfLn9JOZpR2bYxHX2tczMi7xndiFaMy+W+trsq0LCi33V3TZ2wwSEF2vYoeXkYZkptCXoyGbmRDUnOLMv4cUa7gQzTXYgXv8+bLkFZQ2BDKLKALtl/dvVlQFKrraXJ5n00q5Nase88GCTts+2ECBAYDsB50z2DwLrKyC8WN++03ICWwIOxHaGZQVy9TWBRaZQZ+ZWppn39BJe7H1vCC/23lgNBAj0K+Ccqd++0TICOwkIL3YS8u8E1kDAgXgNOukQNzEL++YpCZlplSna04UhD3HTDqheeLH3vSG82HtjNRAg0K+Ac6Z++0bLCOwkILzYSci/E1gDAQfiNeikQ9zE17/+9eNihXllfYUsvlgWLTzETVN9YwHhRWNw1REg0JWAc6auukNjCFQJCC+quBQm0KeAA3Gf/aJVBAgQIECAQF8Czpn66g+tIVAjILyo0VKWQKcCDsSddoxmESBAgAABAl0JOGfqqjs0hkCVgPCiikthAn0KOBD32S9aRYAAAQIECPQl4Jypr/7QGgI1AsKLGi1lCXQq4EDcacdoFgECBAgQINCVgHOmrrpDYwhUCQgvqrgUJtCngANxn/2iVQQIECBAgEBfAs6Z+uoPrSFQIyC8qNFSlkCnAg7EnXaMZhEgQIAAAQJdCThn6qo7NIZAlYDwoopLYQJ9CjgQ99kvWkWAAAECBAj0JeCcqa/+0BoCNQLCixotZQl0KuBA3GnHaBYBAgQIECDQlYBzpq66Q2MIVAkIL1lRSWoAAAR0SURBVKq4FCbQp4ADcZ/9olUECBAgQIBAXwLOmfrqD60hUCMgvKjRUpZApwIOxJ12jGYRIECAAAECXQk4Z+qqOzSGQJWA8KKKS2ECfQo4EPfZL1pFgAABAgQI9CXgnKmv/tAaAjUCwosaLWUJdCrgQNxpx2gWAQIECBAg0JWAc6auukNjCFQJCC+quBQm0KeAA3Gf/aJVBAgQIECAQF8Czpn66g+tIVAjILyo0VKWQKcCDsSddoxmESBAgAABAl0JOGfqqjs0hkCVgPCiikthAn0KOBD32S9aRYAAAQIECPQl4Jypr/7QGgI1AsKLGi1lCXQq4EDcacdoFgECBAgQINCVgHOmrrpDYwhUCQgvqrgUJtCngANxn/2iVQQIECBAgEBfAs6Z+uoPrSFQIyC8qNFSlkCnAg7EnXaMZhEgQIAAAQJdCThn6qo7NIZAlYDwoopLYQJ9CjgQ99kvWkWAAAECBAj0JeCcqa/+0BoCNQLCixotZQl0KuBA3GnHaBYBAgQIECDQlYBzpq66Y981Jvuf12oCETw3H3HuueMfXgQIrJmAA/GadZjmEiBAgAABAodEwDnTIWFX6f8K2P9W2xXMvFjNz7sJdCHgh7CLbtAIAgQIECBAoHMB50ydd9CGN8/+t1oHCy9W8/NuAl0I+CHsohs0ggABAgQIEOhcwDlT5x204c2z/63WwcKL1fy8m0AXAn4Iu+gGjSBAgAABAgQ6F3DO1HkHbXjz7H+rdbDwYjU/7ybQhYAfwi66QSMIECBAgACBzgWcM3XeQRvePPvfah0svFjNz7sJdCHgh7CLbtAIAgQIECBAoHMB50ydd9CGN8/+t1oHCy9W8/NuAl0I+CHsohs0ggABAgQIEOhcwDlT5x204c2z/63WwcKL1fy8m0AXAn4Iu+gGjSBAgAABAgQ6F3DO1HkHbXjz7H+rdbDwYjU/7ybQhYAfwi66QSMIECBAgACBzgWcM3XeQRvePPvfah0svFjNz7sJdCHgh7CLbtAIAgQIECBAoHMB50ydd9CGN8/+t1oHCy9W8/NuAl0I+CHsohs0ggABAgQIEOhcwDlT5x204c2z/63WwcKL1fy8m0AXAn4Iu+gGjSBAgAABAgQ6F3DO1HkHbXjz7H+rdbDwYjU/7ybQhYAfwi66QSMIECBAgACBzgWcM3XeQRvePPvfah0svFjNz7sJdCHgh7CLbtAIAgQIECBAoHMB50ydd9CGN8/+t1oHCy9W8/NuAl0I+CHsohs0ggABAgQIEOhcwDlT5x204c2z/63WwcKL1fy8m0AXAn4Iu+gGjSBAgAABAgQ6F3DO1HkHbXjz7H+rdbDwYjU/7ybQhYAfwi66QSMIECBAgACBzgWcM3XeQRvePPvfah0svFjNz7sJdCHgh7CLbtAIAgQIECBAoHMB50ydd9CGN8/+t1oHCy9W8/NuAl0I+CHsohs0ggABAgQIEOhcwDlT5x204c2z/63WwQeEF6t9lHcTIECAAAECBAgQIECAAAECBPZG4P8Cd1B7dAtxUx4AAAAASUVORK5CYII=;" parent="1" vertex="1">
          <mxGeometry x="670" y="870" width="1020" height="770" as="geometry" />
        </mxCell>
        <mxCell id="Sf9XIOIQq0EHz7IIRPpC-231" style="edgeStyle=orthogonalEdgeStyle;rounded=0;orthogonalLoop=1;jettySize=auto;html=1;exitX=1;exitY=0.25;exitDx=0;exitDy=0;" parent="1" source="Sf9XIOIQq0EHz7IIRPpC-193" edge="1">
          <mxGeometry relative="1" as="geometry">
            <mxPoint x="1670" y="1215" as="targetPoint" />
          </mxGeometry>
        </mxCell>
        <mxCell id="Sf9XIOIQq0EHz7IIRPpC-232" style="edgeStyle=orthogonalEdgeStyle;rounded=0;orthogonalLoop=1;jettySize=auto;html=1;exitX=1;exitY=0.75;exitDx=0;exitDy=0;" parent="1" source="Sf9XIOIQq0EHz7IIRPpC-193" edge="1">
          <mxGeometry relative="1" as="geometry">
            <mxPoint x="1670" y="1265" as="targetPoint" />
          </mxGeometry>
        </mxCell>
        <mxCell id="Sf9XIOIQq0EHz7IIRPpC-235" style="edgeStyle=orthogonalEdgeStyle;rounded=0;orthogonalLoop=1;jettySize=auto;html=1;exitX=0.5;exitY=1;exitDx=0;exitDy=0;entryX=0.5;entryY=1;entryDx=0;entryDy=0;" parent="1" target="Sf9XIOIQq0EHz7IIRPpC-193" edge="1">
          <mxGeometry relative="1" as="geometry">
            <mxPoint x="1040" y="1380" as="sourcePoint" />
          </mxGeometry>
        </mxCell>
        <mxCell id="Sf9XIOIQq0EHz7IIRPpC-239" style="edgeStyle=orthogonalEdgeStyle;rounded=0;orthogonalLoop=1;jettySize=auto;html=1;exitX=0.5;exitY=0;exitDx=0;exitDy=0;entryX=0.5;entryY=0;entryDx=0;entryDy=0;" parent="1" target="Sf9XIOIQq0EHz7IIRPpC-193" edge="1">
          <mxGeometry relative="1" as="geometry">
            <mxPoint x="1385.3333333333335" y="1080" as="sourcePoint" />
          </mxGeometry>
        </mxCell>
        <mxCell id="Sf9XIOIQq0EHz7IIRPpC-193" value="&lt;font style=&quot;font-size: 14px;&quot;&gt;&lt;br&gt;Мониторинг и контроль входа и выхода из помещений гостиницы&lt;/font&gt;" style="html=1;align=center;verticalAlign=top;rounded=1;absoluteArcSize=1;arcSize=10;dashed=0;whiteSpace=wrap;" parent="1" vertex="1">
          <mxGeometry x="1260" y="1190" width="250" height="100" as="geometry" />
        </mxCell>
        <mxCell id="Sf9XIOIQq0EHz7IIRPpC-218" style="edgeStyle=orthogonalEdgeStyle;rounded=0;orthogonalLoop=1;jettySize=auto;html=1;exitX=0;exitY=0.5;exitDx=0;exitDy=0;entryX=0;entryY=0.5;entryDx=0;entryDy=0;" parent="1" target="Sf9XIOIQq0EHz7IIRPpC-216" edge="1">
          <mxGeometry relative="1" as="geometry">
            <mxPoint x="720" y="1165" as="sourcePoint" />
          </mxGeometry>
        </mxCell>
        <mxCell id="Sf9XIOIQq0EHz7IIRPpC-220" style="edgeStyle=orthogonalEdgeStyle;rounded=0;orthogonalLoop=1;jettySize=auto;html=1;exitX=0.75;exitY=1;exitDx=0;exitDy=0;entryX=0.75;entryY=1;entryDx=0;entryDy=0;" parent="1" target="Sf9XIOIQq0EHz7IIRPpC-216" edge="1">
          <mxGeometry relative="1" as="geometry">
            <mxPoint x="880" y="1230" as="sourcePoint" />
            <Array as="points">
              <mxPoint x="1058" y="1230" />
            </Array>
          </mxGeometry>
        </mxCell>
        <mxCell id="Sf9XIOIQq0EHz7IIRPpC-222" style="edgeStyle=orthogonalEdgeStyle;rounded=0;orthogonalLoop=1;jettySize=auto;html=1;exitX=0;exitY=0.25;exitDx=0;exitDy=0;entryX=0;entryY=0.25;entryDx=0;entryDy=0;" parent="1" target="Sf9XIOIQq0EHz7IIRPpC-216" edge="1">
          <mxGeometry relative="1" as="geometry">
            <mxPoint x="710" y="1142.5" as="sourcePoint" />
          </mxGeometry>
        </mxCell>
        <mxCell id="Sf9XIOIQq0EHz7IIRPpC-229" style="edgeStyle=orthogonalEdgeStyle;rounded=0;orthogonalLoop=1;jettySize=auto;html=1;exitX=1;exitY=0.5;exitDx=0;exitDy=0;entryX=0;entryY=0.25;entryDx=0;entryDy=0;" parent="1" source="Sf9XIOIQq0EHz7IIRPpC-216" target="Sf9XIOIQq0EHz7IIRPpC-193" edge="1">
          <mxGeometry relative="1" as="geometry">
            <Array as="points">
              <mxPoint x="1240" y="1165" />
              <mxPoint x="1240" y="1215" />
            </Array>
          </mxGeometry>
        </mxCell>
        <mxCell id="Sf9XIOIQq0EHz7IIRPpC-216" value="&lt;font style=&quot;font-size: 14px;&quot;&gt;&lt;br&gt;Управление smart картами&lt;br&gt;&lt;/font&gt;" style="html=1;align=center;verticalAlign=top;rounded=1;absoluteArcSize=1;arcSize=10;dashed=0;whiteSpace=wrap;" parent="1" vertex="1">
          <mxGeometry x="870" y="1120" width="250" height="90" as="geometry" />
        </mxCell>
        <mxCell id="Sf9XIOIQq0EHz7IIRPpC-225" style="edgeStyle=orthogonalEdgeStyle;rounded=0;orthogonalLoop=1;jettySize=auto;html=1;exitX=0;exitY=0.5;exitDx=0;exitDy=0;entryX=0;entryY=0.5;entryDx=0;entryDy=0;" parent="1" target="Sf9XIOIQq0EHz7IIRPpC-217" edge="1">
          <mxGeometry relative="1" as="geometry">
            <mxPoint x="720" y="1315" as="sourcePoint" />
          </mxGeometry>
        </mxCell>
        <mxCell id="Sf9XIOIQq0EHz7IIRPpC-226" style="edgeStyle=orthogonalEdgeStyle;rounded=0;orthogonalLoop=1;jettySize=auto;html=1;exitX=0.75;exitY=1;exitDx=0;exitDy=0;entryX=0.75;entryY=1;entryDx=0;entryDy=0;" parent="1" target="Sf9XIOIQq0EHz7IIRPpC-217" edge="1">
          <mxGeometry relative="1" as="geometry">
            <mxPoint x="880" y="1380" as="sourcePoint" />
            <Array as="points">
              <mxPoint x="1058" y="1380" />
            </Array>
          </mxGeometry>
        </mxCell>
        <mxCell id="Sf9XIOIQq0EHz7IIRPpC-230" style="edgeStyle=orthogonalEdgeStyle;rounded=0;orthogonalLoop=1;jettySize=auto;html=1;exitX=1;exitY=0.75;exitDx=0;exitDy=0;entryX=0;entryY=0.75;entryDx=0;entryDy=0;" parent="1" source="Sf9XIOIQq0EHz7IIRPpC-217" target="Sf9XIOIQq0EHz7IIRPpC-193" edge="1">
          <mxGeometry relative="1" as="geometry">
            <Array as="points">
              <mxPoint x="1240" y="1338" />
              <mxPoint x="1240" y="1265" />
            </Array>
          </mxGeometry>
        </mxCell>
        <mxCell id="Sf9XIOIQq0EHz7IIRPpC-217" value="&lt;font style=&quot;font-size: 14px;&quot;&gt;&lt;br&gt;Управление умными&lt;br&gt;замками&lt;br&gt;&lt;/font&gt;" style="html=1;align=center;verticalAlign=top;rounded=1;absoluteArcSize=1;arcSize=10;dashed=0;whiteSpace=wrap;" parent="1" vertex="1">
          <mxGeometry x="870" y="1270" width="250" height="90" as="geometry" />
        </mxCell>
        <mxCell id="Sf9XIOIQq0EHz7IIRPpC-219" value="Идентификатор&lt;br&gt;администратора" style="text;html=1;strokeColor=none;fillColor=none;align=center;verticalAlign=middle;whiteSpace=wrap;rounded=0;" parent="1" vertex="1">
          <mxGeometry x="770" y="1151" width="60" height="30" as="geometry" />
        </mxCell>
        <mxCell id="Sf9XIOIQq0EHz7IIRPpC-221" value="Администратор" style="text;html=1;strokeColor=none;fillColor=none;align=center;verticalAlign=middle;whiteSpace=wrap;rounded=0;" parent="1" vertex="1">
          <mxGeometry x="940" y="1210" width="60" height="30" as="geometry" />
        </mxCell>
        <mxCell id="Sf9XIOIQq0EHz7IIRPpC-223" value="Данные smart карты" style="text;html=1;strokeColor=none;fillColor=none;align=center;verticalAlign=middle;whiteSpace=wrap;rounded=0;" parent="1" vertex="1">
          <mxGeometry x="730" y="1120" width="120" height="30" as="geometry" />
        </mxCell>
        <mxCell id="Sf9XIOIQq0EHz7IIRPpC-227" value="Система" style="text;html=1;strokeColor=none;fillColor=none;align=center;verticalAlign=middle;whiteSpace=wrap;rounded=0;" parent="1" vertex="1">
          <mxGeometry x="930" y="1360" width="60" height="30" as="geometry" />
        </mxCell>
        <mxCell id="Sf9XIOIQq0EHz7IIRPpC-228" value="Данные умных замков" style="text;html=1;strokeColor=none;fillColor=none;align=center;verticalAlign=middle;whiteSpace=wrap;rounded=0;" parent="1" vertex="1">
          <mxGeometry x="715" y="1290" width="150" height="30" as="geometry" />
        </mxCell>
        <mxCell id="Sf9XIOIQq0EHz7IIRPpC-233" value="smart карта с определённым доступом" style="text;html=1;strokeColor=none;fillColor=none;align=center;verticalAlign=middle;whiteSpace=wrap;rounded=0;" parent="1" vertex="1">
          <mxGeometry x="1120" y="1151" width="150" height="30" as="geometry" />
        </mxCell>
        <mxCell id="Sf9XIOIQq0EHz7IIRPpC-234" value="Данные настроенных умных замков" style="text;html=1;strokeColor=none;fillColor=none;align=center;verticalAlign=middle;whiteSpace=wrap;rounded=0;" parent="1" vertex="1">
          <mxGeometry x="1120" y="1320" width="150" height="30" as="geometry" />
        </mxCell>
        <mxCell id="Sf9XIOIQq0EHz7IIRPpC-236" value="Отчет о безопасности" style="text;html=1;strokeColor=none;fillColor=none;align=center;verticalAlign=middle;whiteSpace=wrap;rounded=0;" parent="1" vertex="1">
          <mxGeometry x="1510" y="1190" width="150" height="30" as="geometry" />
        </mxCell>
        <mxCell id="Sf9XIOIQq0EHz7IIRPpC-237" value="Отчет о работе системы безопасности" style="text;html=1;strokeColor=none;fillColor=none;align=center;verticalAlign=middle;whiteSpace=wrap;rounded=0;" parent="1" vertex="1">
          <mxGeometry x="1510" y="1250" width="150" height="30" as="geometry" />
        </mxCell>
        <mxCell id="Sf9XIOIQq0EHz7IIRPpC-240" value="Пользовательское соглашение" style="text;html=1;strokeColor=none;fillColor=none;align=center;verticalAlign=middle;whiteSpace=wrap;rounded=0;rotation=-90;" parent="1" vertex="1">
          <mxGeometry x="1355" y="1121" width="60" height="30" as="geometry" />
        </mxCell>
        <mxCell id="Sf9XIOIQq0EHz7IIRPpC-242" value="41" style="text;html=1;strokeColor=none;fillColor=none;align=center;verticalAlign=middle;whiteSpace=wrap;rounded=0;" parent="1" vertex="1">
          <mxGeometry x="1100" y="1181" width="20" height="30" as="geometry" />
        </mxCell>
        <mxCell id="Sf9XIOIQq0EHz7IIRPpC-243" value="42" style="text;html=1;strokeColor=none;fillColor=none;align=center;verticalAlign=middle;whiteSpace=wrap;rounded=0;" parent="1" vertex="1">
          <mxGeometry x="1100" y="1330" width="20" height="30" as="geometry" />
        </mxCell>
        <mxCell id="Sf9XIOIQq0EHz7IIRPpC-244" value="43" style="text;html=1;strokeColor=none;fillColor=none;align=center;verticalAlign=middle;whiteSpace=wrap;rounded=0;" parent="1" vertex="1">
          <mxGeometry x="1490" y="1260" width="20" height="30" as="geometry" />
        </mxCell>
      </root>
    </mxGraphModel>
  </diagram>
  <diagram id="30CSTh-y9SVbLgZfz-_A" name="Страница — 2">
    <mxGraphModel dx="5413" dy="2800" grid="1" gridSize="10" guides="1" tooltips="1" connect="1" arrows="1" fold="1" page="1" pageScale="1" pageWidth="3300" pageHeight="2339" math="0" shadow="0">
      <root>
        <mxCell id="0" />
        <mxCell id="1" parent="0" />
      </root>
    </mxGraphModel>
  </diagram>
</mxfile>
